<svg id="Group_151547" data-name="Group 151547" xmlns="http://www.w3.org/2000/svg" xmlns:xlink="http://www.w3.org/1999/xlink" width="329.217" height="219.203" viewBox="0 0 329.217 219.203">
  <defs>
    <clipPath id="clip-path">
      <rect id="Rectangle_179606" data-name="Rectangle 179606" width="329.217" height="219.203" fill="none"/>
    </clipPath>
    <clipPath id="clip-path-3">
      <rect id="Rectangle_179599" data-name="Rectangle 179599" width="10.842" height="16.224" fill="none"/>
    </clipPath>
    <clipPath id="clip-path-4">
      <rect id="Rectangle_179600" data-name="Rectangle 179600" width="2.878" height="13.936" fill="none"/>
    </clipPath>
    <clipPath id="clip-path-5">
      <rect id="Rectangle_179601" data-name="Rectangle 179601" width="15.618" height="18.77" fill="none"/>
    </clipPath>
    <clipPath id="clip-path-6">
      <rect id="Rectangle_179602" data-name="Rectangle 179602" width="6.473" height="16.806" fill="none"/>
    </clipPath>
    <clipPath id="clip-path-7">
      <rect id="Rectangle_179603" data-name="Rectangle 179603" width="14.67" height="24.173" fill="none"/>
    </clipPath>
    <clipPath id="clip-path-8">
      <rect id="Rectangle_179604" data-name="Rectangle 179604" width="5.66" height="21.634" fill="none"/>
    </clipPath>
  </defs>
  <g id="Group_151546" data-name="Group 151546" clip-path="url(#clip-path)">
    <g id="Group_151545" data-name="Group 151545">
      <g id="Group_151544" data-name="Group 151544" clip-path="url(#clip-path)">
        <path id="Path_235160" data-name="Path 235160" d="M322.646,190.263c-15.974,28.81-61.522,29.228-151.968,28.886-101.087-.381-151.631-.572-166.411-30.143C-15.76,148.941,40.656,85.969,50.736,74.717,104.325,14.9,189.057-14.334,208.356,6.9c13.953,15.349-14.971,47.536,1.884,69.7,17.856,23.486,59.377-.729,91.055,23.863,25.183,19.55,35.906,63.545,21.351,89.8" transform="translate(0 0)" fill="#a9a9a9" opacity="0.23"/>
        <path id="Path_235161" data-name="Path 235161" d="M273.6,200.741l-29.567,2.968V177.486l29.567,2.968a59.877,59.877,0,0,0,0,20.287" transform="translate(-99.302 -72.223)" fill="#fff"/>
        <path id="Path_235162" data-name="Path 235162" d="M246.112,187.8s6.745,3.907,14,2.442a64.779,64.779,0,0,1,12.583-1.456" transform="translate(-100.148 -76.418)" fill="none" stroke="#381905" stroke-linecap="round" stroke-linejoin="round" stroke-width="0.634"/>
        <path id="Path_235163" data-name="Path 235163" d="M247.068,190.971c.457-.07,10.365,3.21,17.133,2.3s8.689-.753,8.689-.753" transform="translate(-100.537 -77.71)" fill="none" stroke="#381905" stroke-linecap="round" stroke-linejoin="round" stroke-width="0.634"/>
        <path id="Path_235164" data-name="Path 235164" d="M245.25,197.678s15.071.527,17.444,1.136,9,2.7,9,2.7" transform="translate(-99.797 -80.439)" fill="none" stroke="#381905" stroke-linecap="round" stroke-linejoin="round" stroke-width="0.634"/>
        <path id="Path_235165" data-name="Path 235165" d="M244.7,208c4.227-1.5,8.843.347,13.327.408,4.443.061,8.9-1.648,13.253-.767" transform="translate(-99.575 -84.391)" fill="none" stroke="#381905" stroke-linecap="round" stroke-linejoin="round" stroke-width="0.634"/>
        <path id="Path_235166" data-name="Path 235166" d="M190.446,175.759l-81.48,2.108a36.9,36.9,0,0,0,0,27.049l81.48-1.91h.1V178.961l29.567.79v-2.968Z" transform="translate(-43.296 -71.52)" fill="#2c2e3a"/>
        <path id="Path_235167" data-name="Path 235167" d="M187.593,189.984l-76.865,1.585v12.176l76.865.132Z" transform="translate(-45.057 -77.309)" fill="#09090a"/>
        <path id="Path_235168" data-name="Path 235168" d="M110.728,215.282V221l81.48-.886v-3.2Z" transform="translate(-45.057 -87.603)" fill="#09090a"/>
        <path id="Path_235169" data-name="Path 235169" d="M277.777,216.7l-29.665.792v3.2l29.665.886Z" transform="translate(-100.962 -88.178)" fill="#370909"/>
        <path id="Path_235170" data-name="Path 235170" d="M287.1,253.341l-38.035,3.818V223.427l38.035,3.818a84.119,84.119,0,0,0,0,26.1" transform="translate(-101.351 -90.917)" fill="#fff"/>
        <path id="Path_235171" data-name="Path 235171" d="M252.885,231.925a160.125,160.125,0,0,0,34.641.936" transform="translate(-102.904 -94.375)" fill="none" stroke="#381905" stroke-linecap="round" stroke-linejoin="round" stroke-width="0.634"/>
        <path id="Path_235172" data-name="Path 235172" d="M250.865,234.65c5.858.437,11.556,2.044,17.309,3.236s11.735,1.969,17.479.739" transform="translate(-102.082 -95.484)" fill="none" stroke="#381905" stroke-linecap="round" stroke-linejoin="round" stroke-width="0.634"/>
        <path id="Path_235173" data-name="Path 235173" d="M252.629,249.1a103.878,103.878,0,0,1,32.761-1.637" transform="translate(-102.8 -100.448)" fill="none" stroke="#381905" stroke-linecap="round" stroke-linejoin="round" stroke-width="0.634"/>
        <path id="Path_235174" data-name="Path 235174" d="M251.784,259.242a244.319,244.319,0,0,1,35.066,3.323" transform="translate(-102.456 -105.491)" fill="none" stroke="#381905" stroke-linecap="round" stroke-linejoin="round" stroke-width="0.634"/>
        <path id="Path_235175" data-name="Path 235175" d="M179.524,221.206,74.71,223.918A25.2,25.2,0,0,0,70.6,239.767a24.713,24.713,0,0,0,4.109,11.592l104.814,4.9h.125v-30.93l38.035,1.015v-3.818Z" transform="translate(-28.693 -90.013)" fill="#2c2e3a"/>
        <path id="Path_235176" data-name="Path 235176" d="M176.468,248.608v-9.1l-98.878,2.04v7.064Z" transform="translate(-31.573 -97.459)" fill="#09090a"/>
        <path id="Path_235177" data-name="Path 235177" d="M77.59,268.115v3.5L182.4,274.328V262.384Z" transform="translate(-31.573 -106.77)" fill="#09090a"/>
        <path id="Path_235178" data-name="Path 235178" d="M292.478,273.865l-38.16,1.019V279l38.16-1.317Z" transform="translate(-103.487 -111.442)" fill="#6b5ae4"/>
        <path id="Path_235179" data-name="Path 235179" d="M294.052,307.936l-41.005,2.62V274.19l41.005,2.375a135.613,135.613,0,0,0,0,31.371" transform="translate(-102.97 -111.574)" fill="#fff"/>
        <path id="Path_235180" data-name="Path 235180" d="M260.1,284.187c5.3-.24,10.55.863,15.826,1.38a128.961,128.961,0,0,0,19.9.05" transform="translate(-105.841 -115.628)" fill="none" stroke="#381905" stroke-linecap="round" stroke-linejoin="round" stroke-width="0.634"/>
        <path id="Path_235181" data-name="Path 235181" d="M258.409,289.9a187.962,187.962,0,0,0,35.142,2.339" transform="translate(-105.152 -117.965)" fill="none" stroke="#381905" stroke-linecap="round" stroke-linejoin="round" stroke-width="0.634"/>
        <path id="Path_235182" data-name="Path 235182" d="M257.28,301.987l20.655-2.125a122.565,122.565,0,0,1,16.744-.954" transform="translate(-104.693 -121.616)" fill="none" stroke="#381905" stroke-linecap="round" stroke-linejoin="round" stroke-width="0.634"/>
        <path id="Path_235183" data-name="Path 235183" d="M259.878,314.228c11.821-2.715,24.346,1.581,36.248-.758" transform="translate(-105.75 -127.485)" fill="none" stroke="#381905" stroke-linecap="round" stroke-linejoin="round" stroke-width="0.634"/>
        <path id="Path_235184" data-name="Path 235184" d="M261.2,320.665l35.253,2.272" transform="translate(-106.289 -130.485)" fill="none" stroke="#381905" stroke-linecap="round" stroke-linejoin="round" stroke-width="0.634"/>
        <path id="Path_235185" data-name="Path 235185" d="M220.647,277.331v-4.116l-41.141-1.42-113,2.924a58.373,58.373,0,0,0,0,33.359l113,2.923,41.141-1.42v-4.116l-37.26.885a30.389,30.389,0,0,1-4.013-13.12,30.744,30.744,0,0,1,4.013-17.2l37.26,1.3" transform="translate(-26.073 -110.599)" fill="#2c2e3a"/>
        <path id="Path_235186" data-name="Path 235186" d="M179.893,291.345l-111.717,2.3v16.885l111.717.193a23.029,23.029,0,0,1-2.074-11.992,22.53,22.53,0,0,1,2.074-7.391" transform="translate(-27.742 -118.554)" fill="#09090a"/>
        <path id="Path_235187" data-name="Path 235187" d="M181.176,328.869l-113-2.261v3.776l113,2.923,41.141-1.42V327.77Z" transform="translate(-27.742 -132.903)" fill="#09090a"/>
        <g id="Group_151548" data-name="Group 151548" transform="translate(-4.851 -13.283)">
          <path id="Path_235188" data-name="Path 235188" d="M157.468,65.332c2.49,1.285,5.3,3.011,5.568,5.8.229,2.361-1.547,4.47-3.533,5.768-2.923,1.911-6.411,2.7-9.738,3.771-6.752,2.163-13.314,5.766-17.428,11.54s-5.25,14.017-1.419,19.983a27.908,27.908,0,0,1-11.881-25.377,17.438,17.438,0,0,1,3.588-9.491c2.746-3.289,6.913-4.95,10.58-7.164s7.222-5.66,7.192-9.944" transform="translate(-48.387 -24.103)" fill="#381905"/>
          <path id="Path_235189" data-name="Path 235189" d="M174.414,72.68c-.966.582-.94,2.88-.918,3.674s-1.024.062-.769-2.3-.052-3.384-1.428-4.382,4.217-1.97,4.217-1.97" transform="translate(-67.306 -26.817)" fill="#381905"/>
          <path id="Path_235190" data-name="Path 235190" d="M150.718,172.369s5.043,41.229,3.834,53.752c-.686,7.106-9.315,5.375-10.53,1.851-1.628-4.722-9.949-54.27-7.106-56.857,1.162-1.057,1.208-1.4,2.687-1.628,5.937-.921,8.869,1.43,11.115,2.881" transform="translate(-54.703 -63.656)" fill="#ff8b6a"/>
          <path id="Path_235191" data-name="Path 235191" d="M143.7,265.628c.859-5.858,2.83-11.067,4.486-13.46,2.584-3.735,7.954-1.618,8.3,1.532,1.085,10-7.948,25.96-6.445,42.243a25.055,25.055,0,0,1-1.352,6.864c-.576,1.361-3.189-.243-4.528-1.109-.059-1.77-.161-4.685-.3-8.282-.533-13.421-1.358-19.573-.154-27.788" transform="translate(-57.153 -92.995)" fill="#ff8b6a"/>
          <path id="Path_235192" data-name="Path 235192" d="M142.015,332.422c.416,4.959,2.709,8.605,5.141,8.61,3.9.006,3.256-5.35,2.84-10.308s-1.925-7.851-4.348-7.648-4.05,4.388-3.633,9.347" transform="translate(-56.742 -119.427)" fill="#381905"/>
          <path id="Path_235193" data-name="Path 235193" d="M149.063,321.851a3.519,3.519,0,0,1,.656,2.075c-.072,3.133.609,7.412.507,8.623-.237,2.812-5.38,2.939-6.646-.453-.4-1.085-.44-5.709.514-9.3.732-2.757,3.621-2.068,4.969-.941" transform="translate(-57.236 -118.628)" fill="#ff8b6a"/>
          <path id="Path_235194" data-name="Path 235194" d="M164.46,174.242s.365,41.534,3.194,53.794c1.6,6.957,9.936,4.117,10.681.466,1-4.894,2.8-55.1-.354-57.3-1.29-.9-1.38-1.229-2.876-1.264-6.006-.141-8.608,2.571-10.646,4.3" transform="translate(-64.905 -63.893)" fill="#ff8b6a"/>
          <path id="Path_235195" data-name="Path 235195" d="M184.14,266.066c-1.614-5.7-4.247-10.6-6.2-12.762-3.048-3.366-8.1-.569-8.026,2.6.225,10.054,11.258,24.7,11.888,41.045a25.04,25.04,0,0,0,2.233,6.63c.748,1.274,3.129-.656,4.345-1.689-.171-1.763-.451-4.665-.777-8.251-1.218-13.376-1.2-19.584-3.464-27.572" transform="translate(-66.883 -93.573)" fill="#ff8b6a"/>
          <path id="Path_235196" data-name="Path 235196" d="M197.817,331.722c.233,4.971-1.567,8.885-3.977,9.206-3.864.514-3.925-4.881-4.157-9.851s.887-8.036,3.315-8.149,4.586,3.823,4.818,8.794" transform="translate(-74.042 -119.375)" fill="#381905"/>
          <path id="Path_235197" data-name="Path 235197" d="M190.038,322.1a3.52,3.52,0,0,0-.381,2.143c.479,3.1.361,7.429.62,8.616.6,2.757,5.718,2.214,6.531-1.314.259-1.128-.307-5.718-1.72-9.157-1.084-2.638-3.86-1.579-5.05-.287" transform="translate(-74.033 -118.588)" fill="#ff8b6a"/>
          <path id="Path_235198" data-name="Path 235198" d="M136.889,149.847q.193.264.415.516c3.018,3.424,10.7,3.149,14.913,3.493,5.062.415,11.843,1.759,15.2-3,3.86-5.47.126-11.884-2.112-17.124a19.024,19.024,0,0,1-1.7-8.285c.079-2.684,1.423-5.4,2.34-7.921q2.013-5.535,4.3-10.968c1.079-2.571,3.718-6.137,1.7-8.86-2.488-3.351-8.78-2.971-12.351-3.308-4.138-.391-10.983-.061-15.128-.316-1.641-.1-.551.075-2.024.807-4.5,2.237-2.25,10.723-1.182,14.471,1.26,4.419,2.967,8.9,2.428,13.466-.59,4.983-3.69,9.127-5.934,13.464-1.988,3.842-3.729,9.654-.862,13.566" transform="translate(-54.359 -36.371)" fill="#ff8b6a"/>
          <path id="Path_235199" data-name="Path 235199" d="M157.3,69.768c-2.626.975-5.754-.5-7.15-2.931a9.352,9.352,0,0,1-.191-8.11,12.816,12.816,0,0,1,9.138-7.533" transform="translate(-59.346 -20.831)" fill="#381905"/>
          <path id="Path_235200" data-name="Path 235200" d="M156.047,53.767s-6.008,3.69-1.7,9.1c.926,1.164,5.381-5.942,4.938-5.937s-3.239-3.164-3.239-3.164" transform="translate(-60.674 -21.764)" fill="#381905"/>
          <path id="Path_235201" data-name="Path 235201" d="M166.629,91.413l5.534-.184,1.1-11.983-4.809,1.092Z" transform="translate(-65.692 -31.005)" fill="#ff8b6a"/>
          <path id="Path_235202" data-name="Path 235202" d="M167.511,88.056l.7-7.436,4.9-.954c-.964,2.944-3.083,6.646-5.606,8.39" transform="translate(-66.013 -31.156)" fill="#381905"/>
          <path id="Path_235203" data-name="Path 235203" d="M167.862,70.95s-.487.689-1.3,1.648c-2.252,2.651-6.68,5.363-10.62,3.345-5.366-2.748-3.987-16.661-1.418-18.989,5.951-5.392,17.356.337,13.34,14" transform="translate(-60.479 -22.192)" fill="#ff8b6a"/>
          <path id="Path_235204" data-name="Path 235204" d="M171.92,66.638q-.126.161-.264.315c-.647.724-1.975,1.845-3.018,1.174-.261-.168-.189-.309-.223-.585a6.092,6.092,0,0,0-.345-1.481,5.545,5.545,0,0,0-2.2-2.635c-1.553-.994-3.426-1.274-5-2.214a8.074,8.074,0,0,1-2.8-2.927,6.023,6.023,0,0,1-.841-4.378c.857-3.438,4.9-2.938,7.544-2.238a11.759,11.759,0,0,1,7.7,6.407c1.2,2.734,1.366,6.129-.544,8.562" transform="translate(-62.233 -20.82)" fill="#381905"/>
          <path id="Path_235205" data-name="Path 235205" d="M173.95,76.843a1.963,1.963,0,1,0,3.322,1.809,1.963,1.963,0,1,0-3.322-1.809" transform="translate(-68.209 -29.602)" fill="#ff8b6a"/>
          <path id="Path_235206" data-name="Path 235206" d="M141.955,102.276a128.635,128.635,0,0,0-3.8,17.177c-1.408,9.43-1.373,16.594-5.028,17.921a4.022,4.022,0,0,1-3.609-.275c-1.354-1-1.708-3.324-.91-5.879q1.222-5.513,2.442-11.027l2.671-20.569a6.868,6.868,0,0,1,1.95-3.669c2.331-2.206,6.238-2.642,8.2-1.073a4.273,4.273,0,0,1,1.956,2.953c.105,1.789-1.421,3.671-3.871,4.44" transform="translate(-51.751 -36.335)" fill="#ff8b6a"/>
          <path id="Path_235207" data-name="Path 235207" d="M181.48,103.911a128.6,128.6,0,0,1,2.186,17.456c.525,9.52-.175,16.651,3.34,18.311a4.022,4.022,0,0,0,3.618.062c1.441-.872,2.01-3.151,1.453-5.769q-.7-5.6-1.406-11.206-.374-10.364-.747-20.728a6.868,6.868,0,0,0-1.6-3.835c-2.116-2.414-5.966-3.21-8.062-1.83a4.273,4.273,0,0,0-2.222,2.759c-.272,1.771,1.073,3.787,3.44,4.781" transform="translate(-69.818 -36.97)" fill="#ff8b6a"/>
          <path id="Path_235208" data-name="Path 235208" d="M202.105,186.8a2.491,2.491,0,1,0,4.612-1.876l.716.2-3.893-3.823c-3.034-13.689-5.913-23.69-7.568-26.678a5.231,5.231,0,0,0-3-2.792,3.716,3.716,0,0,0-3.053.419c-1.468,1.189-1.028,3.929-.838,5.113,1.145,7.122,11.279,26.173,13.027,29.441" transform="translate(-73.757 -57.27)" fill="#ff8b6a"/>
          <path id="Path_235209" data-name="Path 235209" d="M211.922,199.331a6.377,6.377,0,0,0-2.157-.653c-.75-.066-2.091.049-2.361.72-.139.346.092.63.31,1.176.676,1.69-.207,2.294.294,4.314A5.2,5.2,0,0,0,209,207.2a5.038,5.038,0,0,1,.995,1.467c.134.388.194.868.558,1.055a.719.719,0,0,0,.7-.061,1.146,1.146,0,0,0,.522-1.043c-.05-.352-.426-.937-.217-1.285a1.756,1.756,0,0,1,1.54-.535c1.785.12,3.293,1.333,5,1.872.339.107.786.151.978-.148a.6.6,0,0,0-.083-.671,1.74,1.74,0,0,0-.584-.416L216,206.177c-.122-.064-.444-.236-.406-.42.033-.16.337-.166.465-.147a1.72,1.72,0,0,1,.479.171c.861.4,1.732.783,2.6,1.163a2.4,2.4,0,0,0,.88.254.811.811,0,0,0,.765-.414c.2-.444-.272-.73-.6-.9-.479-.248-.973-.465-1.469-.674-.995-.419-2.008-.795-2.987-1.252-.177-.083-.384-.231-.334-.419a.29.29,0,0,1,.275-.189.856.856,0,0,1,.344.085l3.394,1.372c.216.087.663.284.851.052s-.064-.568-.238-.717a7.406,7.406,0,0,0-2.127-1.1c-.729-.293-1.426-.643-2.129-.993a.255.255,0,0,1-.15-.134.175.175,0,0,1,.141-.2.517.517,0,0,1,.266.031,20.193,20.193,0,0,0,2.253.527c.2.034.456.033.528-.153a.3.3,0,0,0-.066-.293,3.43,3.43,0,0,0-.961-.62,4.646,4.646,0,0,0-1.279-.38,16.714,16.714,0,0,1-2.009-.351,19.067,19.067,0,0,1-2.568-1.142" transform="translate(-80.465 -74.311)" fill="#ff8b6a"/>
          <path id="Path_235210" data-name="Path 235210" d="M168.064,166.275c1.507,3.447.732,10.521.732,10.521s-8.292-3.683-14.818,3.212l-2.632-.123s-3.558-5.607-15.5-5.307a13.533,13.533,0,0,1,.469-9.233Z" transform="translate(-54.31 -62.229)" fill="#381905"/>
          <path id="Path_235211" data-name="Path 235211" d="M157.672,72.589a9.707,9.707,0,0,0,.026,1.924l-.691-.385a1.179,1.179,0,0,0,.695,1.382" transform="translate(-62.188 -28.589)" fill="none" stroke="#381905" stroke-linecap="round" stroke-linejoin="round" stroke-width="0.634"/>
          <path id="Path_235212" data-name="Path 235212" d="M162.039,72.931a2.567,2.567,0,0,0,.955.8.941.941,0,0,0,1.131-.276c.131.06.391.125.522.185" transform="translate(-64.028 -28.714)" fill="none" stroke="#381905" stroke-linecap="round" stroke-linejoin="round" stroke-width="0.634"/>
          <path id="Path_235213" data-name="Path 235213" d="M154.953,72.084a2.322,2.322,0,0,1-.926.643.848.848,0,0,1-.992-.343c-.123.043-.362.079-.485.122" transform="translate(-60.587 -28.406)" fill="none" stroke="#381905" stroke-linecap="round" stroke-linejoin="round" stroke-width="0.634"/>
          <path id="Path_235214" data-name="Path 235214" d="M157.993,79.755a.391.391,0,0,0,.163.489.958.958,0,0,0,.549.11,7.866,7.866,0,0,0,2.148-.467,2.28,2.28,0,0,1-2.178,1.3" transform="translate(-62.547 -31.187)" fill="none" stroke="#381905" stroke-linecap="round" stroke-linejoin="round" stroke-width="0.634"/>
          <path id="Path_235215" data-name="Path 235215" d="M166.435,69.934a1.136,1.136,0,0,1,.344.4.52.52,0,0,1-.027.511,4.214,4.214,0,0,0-2.586-.932c-.24,0-.776-.037-.582-.4.119-.22.783-.217.99-.219a2.976,2.976,0,0,1,1.862.634" transform="translate(-64.573 -27.396)" fill="#381905"/>
          <path id="Path_235216" data-name="Path 235216" d="M152.444,67.572a1.141,1.141,0,0,0-.381.369.522.522,0,0,0-.02.511,4.217,4.217,0,0,1,2.663-.688c.24.02.776.036.616-.34-.1-.23-.759-.289-.965-.31a2.975,2.975,0,0,0-1.913.458" transform="translate(-60.382 -26.599)" fill="#381905"/>
          <path id="Path_235217" data-name="Path 235217" d="M177.175,77.183a1.563,1.563,0,0,0-1.328,1.841.358.358,0,1,1,.708.093" transform="translate(-69.026 -30.256)" fill="none" stroke="#381905" stroke-linecap="round" stroke-linejoin="round" stroke-width="0.634"/>
          <path id="Path_235218" data-name="Path 235218" d="M164.207,154.109c2.137,4.334,10.3,14.906,6.166,34.848a27.308,27.308,0,0,1-17.811,1.578l-.99-13.909.224,13.865s-9.609,3.858-17.856.517c0,0-7.637-24.612,5-37.825,0,0,1.024,2.261,12.378,2.261s12.893-1.335,12.893-1.335" transform="translate(-53.008 -57.818)" fill="#105f9a"/>
          <path id="Path_235219" data-name="Path 235219" d="M166.69,149.86c0,1.665-23.431,1.686-22.362-.8,0,0-2.273,1.76-1.486,3.5s18.338,3.454,25.857.885c0,0,.068-.492-.776-2.123s-1.234-1.463-1.234-1.463" transform="translate(-57.006 -56.321)" fill="#0b4a73"/>
          <path id="Path_235220" data-name="Path 235220" d="M175.21,151.624l-1.484.142,1.015,4.312h1.293Z" transform="translate(-68.267 -57.252)" fill="#105f9a"/>
          <path id="Path_235221" data-name="Path 235221" d="M151.9,151.577l-1.765-.2-1.113,4.612,1.44.281Z" transform="translate(-59.307 -57.162)" fill="#105f9a"/>
          <path id="Path_235222" data-name="Path 235222" d="M178.592,159.393c-3.329-2.111,4.187,13.16,5.813,12.647s.606-8.577-5.813-12.647" transform="translate(-69.725 -59.997)" fill="#0b4a73"/>
          <path id="Path_235223" data-name="Path 235223" d="M141.739,159.393c3.329-2.111-4.187,13.16-5.813,12.647s-.606-8.577,5.813-12.647" transform="translate(-54.31 -59.997)" fill="#0b4a73"/>
          <path id="Path_235224" data-name="Path 235224" d="M164.28,209.357a2.724,2.724,0,0,0,0,1.8c1.067,2.677,7.345,2.275,9.51,2.137.908-.059,8.561-.6,9.054-3.262a6.11,6.11,0,0,0-.445-2.674s-.007.007-.01.02-.959,1.248-9.419,1.473-8.695-.506-8.695-.506Z" transform="translate(-64.786 -77.465)" fill="#0b4a73"/>
          <path id="Path_235225" data-name="Path 235225" d="M134.469,209.357a2.723,2.723,0,0,0,0,1.8c1.067,2.677,7.345,2.275,9.51,2.137.908-.059,8.561-.6,9.054-3.262a6.11,6.11,0,0,0-.445-2.674s-.007.007-.01.02-.959,1.248-9.419,1.473-8.695-.506-8.695-.506Z" transform="translate(-53.972 -77.465)" fill="#0b4a73"/>
          <path id="Path_235226" data-name="Path 235226" d="M140.433,105.5c.484-.89,1.015-1.758,1.491-2.651a15.5,15.5,0,0,0,1.525-5.186c.053-.332.449-3.737.57-3.741l5.519-.171s-1.785,14.236,6.717,13.151c4.892-.625,6.175-12.509,6.175-12.509l6.011.6q-.028,2.868-.055,5.735A17.575,17.575,0,0,0,170.411,108c.727,1.605,1.617,3.677,1.178,5.482a8.539,8.539,0,0,1-2.57,3.709,8.4,8.4,0,0,0-1.324,1.854c-1.615,3.361,0,8.393,0,8.393s-11.139,4.948-25.513,0c.329.113,1.358-2.992,1.414-3.192a9.1,9.1,0,0,0-.518-6.949c-.917-1.733-2.4-2.813-3.484-4.332-1.02-1.431-.758-3.6-.219-5.156a15.375,15.375,0,0,1,1.057-2.315" transform="translate(-55.636 -36.261)" fill="#ee444f"/>
          <path id="Path_235227" data-name="Path 235227" d="M128.859,139.321c1.13-3.223,6.682-12.025,14.885-23.4l3.721,1.006c-2.679,7.062-8.285,21.188-11.974,25.716-.758.93-2.51,3.081-4.375,2.776a3.716,3.716,0,0,1-2.343-2,5.23,5.23,0,0,1,.086-4.1" transform="translate(-51.819 -44.305)" fill="#ff8b6a"/>
          <path id="Path_235228" data-name="Path 235228" d="M158.986,89.237s-.006-4.652-2.17-6.113l-.648,3.843" transform="translate(-61.9 -32.409)" fill="#fff"/>
          <path id="Path_235229" data-name="Path 235229" d="M146.593,85.323s2.924.3,4.163-.551c0,0,4.864,4.108,4.793,4.644s-.124,2.014-.943,1.994-8.014-6.087-8.014-6.087" transform="translate(-58.427 -33.008)" fill="#fff"/>
          <path id="Path_235230" data-name="Path 235230" d="M169.929,89.459s-2.86-.678-3.752-1.885c0,0-5.943,2.286-6.052,2.815s-.543,1.943.237,2.192,9.567-3.122,9.567-3.122" transform="translate(-63.256 -34.023)" fill="#fff"/>
          <path id="Path_235231" data-name="Path 235231" d="M164.076,87.7l-.776-.131L155.024,89.7a.252.252,0,0,0-.18.208c-.02.122-.279.247-1.518.038-1.292-.218-1.475-.463-1.447-.607a.243.243,0,0,0-.1-.252l-7.092-4.656-.776-.131L141.6,98l7.742,5.14s-.361.518,1.618.852,1.807-.275,1.807-.275l9-2.317Z" transform="translate(-56.615 -32.836)" fill="#105f9a"/>
          <path id="Path_235232" data-name="Path 235232" d="M164.043,87.7l-9,2.317s.171.608-1.808.274-1.617-.851-1.617-.851L143.875,84.3l-2.368,14.042,7.743,5.141s-.361.518,1.618.851,1.807-.274,1.807-.274l9-2.318Z" transform="translate(-56.582 -32.836)" fill="#105f9a"/>
          <g id="Group_151528" data-name="Group 151528" transform="translate(96.619 54.863)" opacity="0.24">
            <g id="Group_151527" data-name="Group 151527">
              <g id="Group_151526" data-name="Group 151526" clip-path="url(#clip-path-3)">
                <path id="Path_235233" data-name="Path 235233" d="M170.7,89.635l-2.368,14.041-8.475,2.182,2.475-14.069Z" transform="translate(-159.854 -89.635)" fill="#370909"/>
              </g>
            </g>
          </g>
          <g id="Group_151531" data-name="Group 151531" transform="translate(95.261 57.585)" opacity="0.24">
            <g id="Group_151530" data-name="Group 151530">
              <g id="Group_151529" data-name="Group 151529" clip-path="url(#clip-path-4)">
                <path id="Path_235234" data-name="Path 235234" d="M160.6,93.9a2.131,2.131,0,0,1-.537.048l-2.342,13.888a1.7,1.7,0,0,0,.539-.062Z" transform="translate(-157.723 -93.904)" fill="#370909"/>
              </g>
            </g>
          </g>
          <path id="Path_235235" data-name="Path 235235" d="M150.761,110.526c.192.043.414.306.562.447a10.707,10.707,0,0,1,.751.794.162.162,0,0,0,.093.03c1.511-.586,1.812-4.455,2.54-4.507.534-.038.331,1.626.3,1.938a10.881,10.881,0,0,1-.291,1.59,6.577,6.577,0,0,1-.217.69c-.05.13-.318.531-.071.557.263.027.6-.892.7-1.122.185-.44.335-.9.485-1.358.131-.4.379-1.6.843-1.631.393-.028.362.917.357,1.194a9.666,9.666,0,0,1-.133,1.372,8.66,8.66,0,0,1-.264,1.135c-.015.048-.039.111-.066.178a.3.3,0,0,1,.259-.015.669.669,0,0,1,.263.282.771.771,0,0,1,.153.44,1.364,1.364,0,0,0-.024.257.618.618,0,0,0,.184.293,1.114,1.114,0,0,1,.207.716,2.495,2.495,0,0,1-.364,1.119,2.355,2.355,0,0,1-1.126,1.138,3.417,3.417,0,0,1-2.407.46l-.938-.283a2.7,2.7,0,0,1-1.834-1.457,3.833,3.833,0,0,1-.25-1.528l-.111-2.03c-.018-.332.061-.78.406-.7" transform="translate(-59.79 -41.174)" fill="#ff8b6a"/>
        </g>
        <path id="Path_235236" data-name="Path 235236" d="M281.976,40.793a14.777,14.777,0,0,0-.856-3.159,5.758,5.758,0,0,0-2.579-2.825c-.213-.141-2.481-1.193-2.481-1.193l-.212,15.412c1.347.677,3.79.712,4.74-.614a10.164,10.164,0,0,0,1.455-7.139c-.02-.161-.042-.321-.067-.482" transform="translate(-112.248 -13.679)" fill="#381905"/>
        <path id="Path_235237" data-name="Path 235237" d="M266.752,79.754c3.376,7.518,7.7,16.867,11.08,24.386a3.981,3.981,0,0,0,6.9-3.737l0,0,0-.008c-.032-.094-.066-.187-.106-.279s-.081-.16-.122-.24L273.776,74.559a5.79,5.79,0,0,0-2.215-2.709c-2.289-1.437-5.587-1.153-6.946.466-1.645,1.958-1.919,4.646,2.137,7.437" transform="translate(-107.218 -28.859)" fill="#ff8b6a"/>
        <path id="Path_235238" data-name="Path 235238" d="M300.477,83.624c-.162.887-3.214,16.886-5.767,23.972a3.845,3.845,0,0,1-7.269-2.505l1.826-4.75,3.672-9.551L294.4,87a5.953,5.953,0,0,1,.359-.935c.113-.294.214-.588.351-.87.333-.687.591-1.415.878-2.121a.263.263,0,0,1,.359-.207c.909.158,1.822.3,2.726.478l.889.175c.1.021.441.027.518.1" transform="translate(-116.887 -33.715)" fill="#ff8b6a"/>
        <path id="Path_235239" data-name="Path 235239" d="M246.347,133.394c23.017,7.619,36.589,10.312,41.068,11.86a5.287,5.287,0,0,1,2.906,2.254c1.542,2.9-.943,7.055-3.452,7.309-5.528.559-11.231.318-16.777.31-4.306-.008-8.613-.058-12.918-.174-3.747-.1-8.151.461-10.851-2.687a11.7,11.7,0,0,1-2.29-4.7,16.76,16.76,0,0,1,2.314-14.169" transform="translate(-99.047 -54.281)" fill="#e06548"/>
        <path id="Path_235240" data-name="Path 235240" d="M297.067,166.136c1.694-5.027,4.265-9.3,6.108-11.148,2.875-2.879,7.271-.154,7.068,2.677.007,6.295-11.032,30.96-12.439,36.207-.7,2.6-.4,3.6-2.492,3.59a4.058,4.058,0,0,1-3.143-1.435c-.626-1.566.266-3.273.589-5.373s2.616-19.493,4.31-24.52" transform="translate(-118.801 -62.569)" fill="#e06548"/>
        <path id="Path_235241" data-name="Path 235241" d="M243.108,137.516c23.017,7.619,36.589,10.312,41.068,11.86a5.285,5.285,0,0,1,2.905,2.254c1.542,2.9-.943,7.055-3.451,7.309-5.529.559-11.232.318-16.778.31-4.306-.008-8.613-.058-12.918-.174-5.532-.15-8.421-.541-10.851-2.687a10.719,10.719,0,0,1-3.031-4.835c-2.221-6.736,2.382-13.13,3.056-14.036" transform="translate(-97.438 -55.958)" fill="#ff8b6a"/>
        <path id="Path_235242" data-name="Path 235242" d="M301.933,172.178c.575-5.273,2.168-10,3.572-12.2,2.19-3.429,7.068-1.712,7.478,1.1,1.359,6.147-4.126,32.607-4.375,38.034-.123,2.688.383,3.6-1.663,4.042a4.056,4.056,0,0,1-3.378-.727c-.948-1.4-.444-3.254-.579-5.374s-1.631-19.6-1.056-24.873" transform="translate(-122.81 -64.324)" fill="#ff8b6a"/>
        <path id="Path_235243" data-name="Path 235243" d="M269.669,122.764c.014.208-.309.357-.393.444-2.844,2.938-9.71,2.372-13.491,2.5-4.548.16-10.672,1.08-13.479-3.318-3.226-5.057.383-10.64,2.6-15.237a17.039,17.039,0,0,0,1.863-7.344c.041-2.406-1.049-4.893-1.764-7.186q-1.571-5.038-3.386-10c-.859-2.346-3.492-5.276-1.569-7.629,1.323-1.618,3.323-.874,11.509-2.076,5.089-.747,6.775-1.48,9.037-.336,1.891.957,2.869,2.559,3.932,4.349a20.247,20.247,0,0,1,2.916,9.4c.22,8.519-6.972,10.429-8.673,21.057a16.966,16.966,0,0,0,.942,9.315,8.162,8.162,0,0,0,2.1,3.3c2.993,2.628,7.8,1.917,7.853,2.754" transform="translate(-97.403 -29.298)" fill="#ff8b6a"/>
        <path id="Path_235244" data-name="Path 235244" d="M244.407,131.281c-7.612,8-7.8,18.232-3.226,22.632,3.665,3.522,9.685,2.636,11.01,2.411-.659.082-6.111.675-9.716-3.226-3.4-3.675-3.867-9.947-.958-13.134a7.457,7.457,0,0,1,3.7-2.088c2.984-.789,4.947.467,10.416,1.807,1.384.339,3.407.785,5.914,1.154.027-.237.056-.474.078-.714.055-.6.14-1.671.264-3.584a19.782,19.782,0,0,1-11.287-1.1,19.333,19.333,0,0,1-6.194-4.153" transform="translate(-96.901 -53.421)" fill="#8abcdd"/>
        <path id="Path_235245" data-name="Path 235245" d="M246.013,93.644c-.056-.284-.09-.448-.09-.448a1.393,1.393,0,0,0,.09.448" transform="translate(-100.071 -37.923)" fill="#e1ad19"/>
        <path id="Path_235246" data-name="Path 235246" d="M261.727,113.345q-.066-.353-.135-.7a10.06,10.06,0,0,1-.33-3.772c.192-1.02.743-1.946.93-2.967a21.655,21.655,0,0,0,.005-3.288c.139-5.013,5.559-8.323,4.95-13.488-.318-2.7-1.767-4.952-2.959-7.326-.955-1.9-1.9-3.809-2.89-5.693-.81-1.544-1.613-3.6-3.016-4.722a2.337,2.337,0,0,0-2.132-.5,15.907,15.907,0,0,1,3.671,11.137c-.086,1.359-.476,2.9-1.7,3.508-1.245.619-2.761-.052-3.811-.963-2.705-2.345-3.107-5.527-4.574-8.557a6.251,6.251,0,0,0-3.071-2.814,6.472,6.472,0,0,0-2.093-.543,18.4,18.4,0,0,1-2.142.225c2.543,1.511,3.728,4.679,3.644,7.636a18.218,18.218,0,0,1-1.346,5.915c-1.453-.465-2.473-1.1-2.763-1.9.479,2.431,2.725,14.215,1.888,17.522-.934,3.694-9.926,15.651-7.437,23.362s11.445,8.033,15.36,7.31a15.962,15.962,0,0,1,2.723-7.2,17.249,17.249,0,0,1,5.431-5.2c1.28-.778,2.23-.8,2.257-2.418a23.26,23.26,0,0,0-.465-4.552" transform="translate(-96.028 -28.809)" fill="#e1ad19"/>
        <path id="Path_235247" data-name="Path 235247" d="M236.693,155.244c-.014-.042-.022-.084-.034-.126.055-.483.133-.961.229-1.426a13.777,13.777,0,0,1,3.894-7.624,8.414,8.414,0,0,1,3.919-1.956.168.168,0,0,1,.089.324,9.518,9.518,0,0,0-5.574,4.842,16.052,16.052,0,0,0-1.378,3.7,10.9,10.9,0,0,0-.374,4.068,10.727,10.727,0,0,1-.77-1.805" transform="translate(-96.302 -58.64)" fill="#ffd37b"/>
        <path id="Path_235248" data-name="Path 235248" d="M244.2,161.235a6.381,6.381,0,0,0,.334.641,11.357,11.357,0,0,1-1.226-.69,7.713,7.713,0,0,1-.329-1.076,9.674,9.674,0,0,1,.068-4.2,18.42,18.42,0,0,1,5.607-9.123c.583-.514,1.225-.908,1.846-1.366.13-.1.3.126.174.226a15.768,15.768,0,0,0-1.359,1.305c-.448.447-.875.909-1.29,1.387a21.445,21.445,0,0,0-2.231,3.11,12.809,12.809,0,0,0-2.153,7.667,7.124,7.124,0,0,0,.558,2.124" transform="translate(-98.794 -59.164)" fill="#ffd37b"/>
        <path id="Path_235249" data-name="Path 235249" d="M257.073,161.692a12.771,12.771,0,0,1,1.995-6.062,15.284,15.284,0,0,1,5.5-4.738c1.225-.7,2.473-1.354,3.712-2.025s2.464-1.413,3.754-1.986a12.365,12.365,0,0,1,3.355-.811c.584-.082,1.166-.17,1.748-.259l1.067.325a11.085,11.085,0,0,1-1.9.474c-.934.181-1.885.316-2.806.553a15.54,15.54,0,0,0-3.427,1.633l-3.646,1.987a19.442,19.442,0,0,0-5.948,4.3,11.622,11.622,0,0,0-2.5,8.4q-.438.016-.9.011a12.664,12.664,0,0,1-.006-1.812" transform="translate(-104.596 -59.334)" fill="#ffd37b"/>
        <path id="Path_235250" data-name="Path 235250" d="M249.331,108.174l-.071-.214a.257.257,0,0,0,.071.214" transform="translate(-101.428 -43.932)" fill="#6ba0fe"/>
        <path id="Path_235251" data-name="Path 235251" d="M242.926,83.427c-1.381,7.788-3.27,16.908-4.652,24.7a3.821,3.821,0,0,1-7.3-1.861v0l0-.009c.008-.095.018-.19.033-.284s.038-.168.057-.251l4.055-26.078a5.553,5.553,0,0,1,1.428-3.04c1.793-1.874,4.929-2.382,6.574-1.194,1.99,1.438,2.925,4.471-.2,8.018" transform="translate(-93.984 -30.425)" fill="#ff8b6a"/>
        <path id="Path_235252" data-name="Path 235252" d="M279.11,62.276a1.683,1.683,0,0,0,1.621.1l-2.082-1.657a1.683,1.683,0,0,0,.461,1.557" transform="translate(-113.381 -24.708)" fill="#454658"/>
        <path id="Path_235253" data-name="Path 235253" d="M266.858,67.761l-4.527-.653.184-9.938,3.849,1.333Z" transform="translate(-106.748 -23.264)" fill="#ff8b6a"/>
        <path id="Path_235254" data-name="Path 235254" d="M267.088,65.009l.1-6.169-3.938-1.228c.524,2.5,1.928,5.736,3.841,7.4" transform="translate(-107.121 -23.444)" fill="#381905"/>
        <path id="Path_235255" data-name="Path 235255" d="M262.633,49.378s.337.61.919,1.471c1.608,2.381,5,5.01,8.415,3.711,4.655-1.77,4.786-13.317,2.888-15.462-4.4-4.966-14.279-1.3-12.223,10.279" transform="translate(-106.758 -15.031)" fill="#ff8b6a"/>
        <path id="Path_235256" data-name="Path 235256" d="M250.749,82.542c.786,2.752-.236,5.324-1.4,7.775a27.946,27.946,0,0,0-2.094,8.526c-.044.351-.087.7-.13,1.053" transform="translate(-100.562 -33.588)" fill="none" stroke="#381905" stroke-linecap="round" stroke-linejoin="round" stroke-width="0.634"/>
        <path id="Path_235257" data-name="Path 235257" d="M259.507,30.959a13.733,13.733,0,0,0-8.161,2.99,9.644,9.644,0,0,0-3.545,7.757c.117,1.894.881,3.818.339,5.635-.514,1.723-2.032,2.84-3.318,3.979-1.071.949-3.489,3-1.929,4.472a3.831,3.831,0,0,0,2.051.823,31.692,31.692,0,0,1,4.168.736,10.052,10.052,0,0,1,5.792,5.021,13.62,13.62,0,0,1,1.309,7.648A22.053,22.053,0,0,0,255.9,73.6a3.948,3.948,0,0,0,1.537,3.11A4.455,4.455,0,0,1,258,73.164c.6-1.078,1.425-2.017,2.036-3.088a9.737,9.737,0,0,0,.916-4.291,11.228,11.228,0,0,0-1.171-5.32c-1.162-2.557-2.866-4.845-3.969-7.43s-1.536-5.693-.126-8.123a9.684,9.684,0,0,1,3.523-3.247c2.508-1.509,6.562-3.161,7.12-6.459.611-3.618-4.224-4.379-6.823-4.248" transform="translate(-98.631 -12.592)" fill="#381905"/>
        <path id="Path_235258" data-name="Path 235258" d="M263.209,55.1a1.622,1.622,0,1,1-2.892,1.184,1.622,1.622,0,1,1,2.892-1.184" transform="translate(-105.848 -21.852)" fill="#ff8b6a"/>
        <path id="Path_235259" data-name="Path 235259" d="M263.2,51.293c.808.462.831,2.36.828,3.016s.847.031.591-1.915-.023-2.8,1.095-3.646S262.2,47.2,262.2,47.2" transform="translate(-106.693 -19.208)" fill="#381905"/>
        <path id="Path_235260" data-name="Path 235260" d="M261.494,55.081a1.667,1.667,0,0,1,1.288,1.891.589.589,0,0,0-.771.095" transform="translate(-106.407 -22.414)" fill="none" stroke="#381905" stroke-linecap="round" stroke-linejoin="round" stroke-width="0.697"/>
        <path id="Path_235261" data-name="Path 235261" d="M283.749,51.805a.688.688,0,0,1-1.276.085" transform="translate(-114.944 -21.081)" fill="none" stroke="#381905" stroke-linecap="round" stroke-linejoin="round" stroke-width="0.634"/>
        <path id="Path_235262" data-name="Path 235262" d="M275.971,52.778a1.124,1.124,0,0,1-1.641.369" transform="translate(-111.631 -21.476)" fill="none" stroke="#381905" stroke-linecap="round" stroke-linejoin="round" stroke-width="0.634"/>
        <path id="Path_235263" data-name="Path 235263" d="M279.86,54.382q-.012.7-.023,1.405l.982-.266a1.4,1.4,0,0,1-.662,1.188" transform="translate(-113.872 -22.129)" fill="none" stroke="#381905" stroke-linecap="round" stroke-linejoin="round" stroke-width="0.634"/>
        <path id="Path_235264" data-name="Path 235264" d="M277.294,60.4a1.22,1.22,0,0,1-1.715-.444,3.656,3.656,0,0,0,2.858-.126c0-.107.038-.179.038-.286" transform="translate(-112.139 -24.23)" fill="none" stroke="#381905" stroke-linecap="round" stroke-linejoin="round" stroke-width="0.634"/>
        <path id="Path_235265" data-name="Path 235265" d="M282.747,48.472a.675.675,0,0,0-.358.058.271.271,0,0,0-.144.306c.044.129.2.177.333.206l1.215.267c.222.049.616.241.6-.095-.021-.555-1.269-.727-1.649-.743" transform="translate(-114.847 -19.723)" fill="#381905"/>
        <path id="Path_235266" data-name="Path 235266" d="M274.442,49.853a.675.675,0,0,1,.358.058.271.271,0,0,1,.144.306c-.044.129-.2.177-.333.206l-1.215.267c-.222.049-.616.241-.6-.095.021-.555,1.269-.727,1.649-.743" transform="translate(-111.005 -20.285)" fill="#381905"/>
        <path id="Path_235267" data-name="Path 235267" d="M301.862,233.111c.387,4.614,2.521,8.008,4.784,8.012,3.627.006,3.03-4.978,2.643-9.592s-1.791-7.307-4.046-7.118-3.768,4.083-3.381,8.7" transform="translate(-122.81 -91.315)" fill="#381905"/>
        <path id="Path_235268" data-name="Path 235268" d="M308.516,223.121a3.273,3.273,0,0,1,.611,1.93c-.067,2.916.566,6.9.471,8.024-.22,2.617-5.007,2.735-6.184-.422-.377-1.009-.41-5.312.478-8.657.681-2.565,3.37-1.924,4.624-.876" transform="translate(-123.363 -90.419)" fill="#ff8b6a"/>
        <path id="Path_235269" data-name="Path 235269" d="M287.7,228.7c-.418,4.611,1.1,8.323,3.324,8.719,3.572.635,3.847-4.378,4.264-8.989s-.5-7.506-2.752-7.71-4.419,3.369-4.836,7.98" transform="translate(-117.042 -89.81)" fill="#381905"/>
        <path id="Path_235270" data-name="Path 235270" d="M295.926,219.918a3.274,3.274,0,0,1,.267,2.008c-.571,2.86-.637,6.892-.925,7.985-.67,2.538-5.4,1.827-6.018-1.486-.2-1.06.517-5.3,1.97-8.444,1.115-2.409,3.652-1.311,4.706-.062" transform="translate(-117.689 -88.933)" fill="#e06548"/>
        <path id="Path_235271" data-name="Path 235271" d="M295.157,150.752a6.489,6.489,0,0,0-3.565-2.819c-1.5-.52-3.964-1.155-7.371-2.034-3.618-.934-8.542-2.207-14.669-3.957l-14.893,17.734a28.868,28.868,0,0,0,4.559.247c.581,0,1.155,0,1.713.015,4.035.11,8.27.167,12.949.174,1.237,0,2.483.015,3.732.029q1.375.015,2.756.025-.2.551-.39,1.1c-1.421,4.219-3.223,16.718-4.006,22.251a41.141,41.141,0,0,0,8.262,2.551c.719-1.912,1.66-4.293,2.68-6.873,3.033-7.677,6.8-17.214,8.082-22.778a6.188,6.188,0,0,0,.162-5.669" transform="translate(-103.626 -57.759)" fill="#0b4a73"/>
        <path id="Path_235272" data-name="Path 235272" d="M268.045,159.867c1.373.015,2.752.03,4.131.03h.453c-.146.847-.265,1.693-.356,2.534-.4,3.63.094,12.144.668,20.061a.866.866,0,0,0,.5.728,11.264,11.264,0,0,0,9.509-.021.864.864,0,0,0,.487-.654c.132-.851.361-2.248.634-3.939,2.1-13.016,3.639-23.306,2.769-27.409a4.966,4.966,0,0,0-1.7-2.923,7.782,7.782,0,0,0-2.9-1.768c-1.527-.527-4-1.165-7.42-2.048-6.81-1.758-18.208-4.7-33.67-9.819l.444-.835-1.91,1.149c-1.378,1.854-6.21,8.776-3.838,15.968a12.423,12.423,0,0,0,3.544,5.612c3.052,2.694,6.725,2.989,11.98,3.131,4.04.11,8.281.167,12.963.174,1.232,0,2.471.016,3.716.029" transform="translate(-95.707 -54.447)" fill="#105f9a"/>
        <path id="Path_235273" data-name="Path 235273" d="M248.686,147.711a5.915,5.915,0,0,0-4.177,2.817c-.19.367-.288.9.059,1.125.273.176.632.028.922-.118,2.137-1.079,4.37-1.826,6.561-2.763.9-.384,1.388-.731.275-1.193-.926-.384-2.7-.056-3.64.131" transform="translate(-99.426 -59.981)" fill="#0b4a73"/>
        <path id="Path_235274" data-name="Path 235274" d="M243,127.007c-1.732,3.315-5.35,8.256-7.018,11.563,0,0,15.833-.983,27.038-.112a33.2,33.2,0,0,1-1.9-5.6c-.21-1.256-3.481,0-3.481,0" transform="translate(-96.028 -51.682)" fill="#e1ad19"/>
        <path id="Path_235275" data-name="Path 235275" d="M233.069,150.774c.2-.84,3.773-16.059,4.3-23.269a3.69,3.69,0,0,0-7.352-.641l-1.19,22.944Z" transform="translate(-93.115 -50.273)" fill="#ff8b6a"/>
        <path id="Path_235276" data-name="Path 235276" d="M225.045,165.091a4.981,4.981,0,0,1,1.614-.707,2.363,2.363,0,0,1,1.9.34c1.532,1.162.413,2.926.039,4.319a5.662,5.662,0,0,1-.556,1.886,3.944,3.944,0,0,0-.636,1.232c-.068.313-.07.692-.336.871a.563.563,0,0,1-.55.018.9.9,0,0,1-.5-.762c.006-.278.243-.767.049-1.018a1.372,1.372,0,0,0-1.245-.273c-1.375.259-2.433,1.341-3.709,1.917-.253.114-.6.19-.773-.024a.465.465,0,0,1,0-.528,1.36,1.36,0,0,1,.415-.377l1.757-1.2c.088-.061.322-.225.276-.364-.04-.121-.276-.1-.374-.071a1.369,1.369,0,0,0-.356.177c-.631.393-1.273.769-1.914,1.144a1.862,1.862,0,0,1-.66.279.633.633,0,0,1-.633-.25c-.2-.326.143-.592.381-.754.349-.237.713-.451,1.079-.66.734-.418,1.485-.8,2.2-1.249.129-.081.278-.215.221-.357a.226.226,0,0,0-.231-.121.664.664,0,0,0-.259.1l-2.509,1.38c-.16.088-.489.282-.657.12s0-.447.119-.579a5.785,5.785,0,0,1,1.549-1.053c.539-.3,1.048-.632,1.562-.969a.2.2,0,0,0,.1-.119c.012-.069-.057-.132-.128-.141a.4.4,0,0,0-.2.049,15.558,15.558,0,0,1-1.7.617c-.149.045-.351.068-.425-.069a.234.234,0,0,1,.024-.234,2.692,2.692,0,0,1,.689-.571,3.63,3.63,0,0,1,.958-.414,13.086,13.086,0,0,0,1.527-.458,14.915,14.915,0,0,0,1.888-1.125" transform="translate(-89.032 -66.866)" fill="#ff8c65"/>
        <path id="Path_235277" data-name="Path 235277" d="M301.985,90.443c.006-1.177.684-5.9,1.5-6.188s3.841,2.164,3.147,3.43-2.331-.169-2.665.017,2.061,1.836,1.646,2.523" transform="translate(-122.884 -34.276)" fill="#ff8b6a"/>
        <path id="Path_235278" data-name="Path 235278" d="M317.815,59.22s2.662-4.524.023-6.79l-1.449,4.987" transform="translate(-128.745 -21.335)" fill="#fff"/>
        <path id="Path_235279" data-name="Path 235279" d="M298.1,61.492l-1.1,5.1,2.285-.082a16.6,16.6,0,0,0,2.673-1.024" transform="translate(-120.856 -25.022)" fill="#fff"/>
        <path id="Path_235280" data-name="Path 235280" d="M300.361,64.64a5.548,5.548,0,0,1-1.519-3.744s9.786-1.266,10.279-.741,1.972,1.827,1.261,2.654-10.021,1.83-10.021,1.83" transform="translate(-121.6 -24.427)" fill="#fff"/>
        <path id="Path_235281" data-name="Path 235281" d="M327.823,61.822s-3.681-1.337-4.676-3.072c0,0-4.842,1.713-5.068,2.4s-1.017,2.489-.023,2.938,9.767-2.264,9.767-2.264" transform="translate(-129.225 -23.907)" fill="#fff"/>
        <path id="Path_235282" data-name="Path 235282" d="M316.633,62.546l-.511-.148-8.4,1.006a.334.334,0,0,0-.27.247c-.046.159-.407.283-2.015-.183-1.675-.487-1.881-.84-1.821-1.027a.324.324,0,0,0-.1-.349l-10.694,1.893L287.3,80.932l.335.387,9.982-2.249s-.557.63,2.01,1.375,2.433-.085,2.433-.085l9.129-2.1Z" transform="translate(-116.907 -25.267)" fill="#e1ad19"/>
        <path id="Path_235283" data-name="Path 235283" d="M316.863,62.854l-8.894,1.286s.133.83-2.434.085-2.01-1.376-2.01-1.376l-9.851,1.8L287.86,81.628l9.851-1.8s-.557.63,2.01,1.375,2.434-.085,2.434-.085l9.129-2.1Z" transform="translate(-117.136 -25.575)" fill="#e1ad19"/>
        <g id="Group_151534" data-name="Group 151534" transform="translate(170.724 37.283)" opacity="0.22">
          <g id="Group_151533" data-name="Group 151533">
            <g id="Group_151532" data-name="Group 151532" clip-path="url(#clip-path-5)">
              <path id="Path_235284" data-name="Path 235284" d="M293.674,64.656,287.86,81.633l9.718-1.776,5.9-16.993Z" transform="translate(-287.86 -62.864)" fill="#370909"/>
            </g>
          </g>
        </g>
        <g id="Group_151537" data-name="Group 151537" transform="translate(183.871 39.031)" opacity="0.22">
          <g id="Group_151536" data-name="Group 151536">
            <g id="Group_151535" data-name="Group 151535" clip-path="url(#clip-path-6)">
              <path id="Path_235285" data-name="Path 235285" d="M316.5,65.829a2.822,2.822,0,0,1-.717-.019l-5.756,16.778a2.261,2.261,0,0,0,.722,0Z" transform="translate(-310.028 -65.81)" fill="#370909"/>
            </g>
          </g>
        </g>
        <path id="Path_235286" data-name="Path 235286" d="M306.273,92.725a.483.483,0,0,1,.029-.058.892.892,0,0,1,.428-.346c.17-.076.351-.126.519-.208a.53.53,0,0,0,.337-.39,1.156,1.156,0,0,0-.05-.295.7.7,0,0,1,.136-.552c.266-.337.789-.291,1.173-.327l1.253-.118.888-.083a1.405,1.405,0,0,0,.316-.03c-.391.144-.069.148-.184.082.146.082.418.091.467.584a2.732,2.732,0,0,1-.262.831c-.212.263-.75.239-.87.219-.2-.032.407.778.093,1.184a3.059,3.059,0,0,1-1.434.465c-.2.038.073.751-.839,1.245-.04.022-.084.036-.125.057l-.869-.144L306.4,94.7c-.22-.037-.528-.062-.561-.343a.47.47,0,0,1,.144-.373,1.042,1.042,0,0,1,.349-.216c.133-.056.3-.141.285-.285s-.18-.2-.278-.3a.432.432,0,0,1-.066-.461" transform="translate(-124.451 -36.753)" fill="#ff8b6a"/>
        <path id="Path_235287" data-name="Path 235287" d="M312.48,90.319s-3.492.255-3.659.652-.4,1.158,2.3.964" transform="translate(-125.629 -36.753)" fill="none" stroke="#381905" stroke-linecap="round" stroke-linejoin="round" stroke-width="0.634"/>
        <path id="Path_235288" data-name="Path 235288" d="M308.455,92.959s-1.856.053-2.027.922,2.922.878,2.922.878" transform="translate(-124.689 -37.827)" fill="none" stroke="#381905" stroke-linecap="round" stroke-linejoin="round" stroke-width="0.634"/>
        <path id="Path_235289" data-name="Path 235289" d="M307.728,95.838s-1.942.011-1.936.652,2.279.594,2.279.594" transform="translate(-124.433 -38.999)" fill="none" stroke="#381905" stroke-linecap="round" stroke-linejoin="round" stroke-width="0.634"/>
        <path id="Path_235290" data-name="Path 235290" d="M451.458,330.086c-1.1.876-2.7-.441-6.112-1.168-2.469-.527-2.642-.053-13.111.613a56.337,56.337,0,0,1-7.864.126,33.816,33.816,0,0,1-5.774-.9,44.4,44.4,0,0,1-15.026-6.715,7.229,7.229,0,0,1-.524-4.274c.167-.859.651-3.026,2.495-3.915a3.809,3.809,0,0,1,2.726-.041c.034-.019,31.281,9.253,37.661,10.141,4.777.664,5.25-.2,5.291-.437.8,2.4,1.551,5.523.238,6.573" transform="translate(-163.958 -127.603)" fill="#ff8b6a"/>
        <path id="Path_235291" data-name="Path 235291" d="M476.3,324.035a8.11,8.11,0,0,1-2.244,1.859c-1.072.468-3.634,1.108-3.7,1.334a8.129,8.129,0,0,0,.444,2.445c.19.227,4.313-2.644,4.367-2.465s1.932,1.589,2.334,1.049a10.088,10.088,0,0,0,.49-3.054l-1.209-1.062Z" transform="translate(-191.395 -131.857)" fill="#08051a"/>
        <path id="Path_235292" data-name="Path 235292" d="M481.16,316.139s-.931-.056-1.305.472-1.146,3.04-1.256,3.2a11.622,11.622,0,0,0-1.115,1.29c-.1.275,1.261,2.771,1.062,3.255s-1.253-1.374-1.515-1.191-2.753,2.022-3,2.06.966,3.521-.336,6.175l4.05,1.515,1.076.236.557-1.135.541-3.375,1.674-4.348.807-2.245.094-3.64-1.129-2.355Z" transform="translate(-192.756 -128.609)" fill="#454658"/>
        <path id="Path_235293" data-name="Path 235293" d="M484.618,315.906c-.046-.029-.837-.146-.971.046s.808.528.813.677a13.606,13.606,0,0,1-.173,6.525c-.96,3.876-2.079,4.259-2.569,6.074s-.263,3.732-1.2,3.6c.136.1,1.634,1.133,2.642.543.543-.318.69-.96.906-1.966a14.1,14.1,0,0,0,.3-3.835c0-.574.8-1.175,1.344-2.83s1.226-7.367-1.1-8.837" transform="translate(-195.535 -128.524)" fill="#fff"/>
        <path id="Path_235294" data-name="Path 235294" d="M480.088,324.307a.151.151,0,0,0-.286-.087,5.817,5.817,0,0,0-.521,2.633.151.151,0,0,0,.3-.011,5.5,5.5,0,0,1,.494-2.5.194.194,0,0,0,.011-.039" transform="translate(-195.028 -131.896)" fill="#454658"/>
        <path id="Path_235295" data-name="Path 235295" d="M478.939,327.289a.15.15,0,0,0-.012-.087c-.066-.144-.146-.293-.227-.446a4.2,4.2,0,0,1-.431-1.006.151.151,0,0,0-.295.063,4.429,4.429,0,0,0,.458,1.085c.079.148.155.293.22.432a.15.15,0,0,0,.285-.04" transform="translate(-194.497 -132.506)" fill="#454658"/>
        <path id="Path_235296" data-name="Path 235296" d="M479.137,324.048a.15.15,0,0,0-.268-.116,8.593,8.593,0,0,0-1.691,3.587.151.151,0,1,0,.3.015,8.3,8.3,0,0,1,1.629-3.418.147.147,0,0,0,.029-.068" transform="translate(-194.174 -131.791)" fill="#454658"/>
        <path id="Path_235297" data-name="Path 235297" d="M476.625,328.961a.154.154,0,0,0-.015-.094,6.974,6.974,0,0,1-.569-1.588.151.151,0,1,0-.3.06,7.368,7.368,0,0,0,.6,1.668.151.151,0,0,0,.282-.047" transform="translate(-193.59 -133.128)" fill="#454658"/>
        <path id="Path_235298" data-name="Path 235298" d="M476.7,326.444a.15.15,0,0,0-.266-.119,5.97,5.97,0,0,0-1.129,2.806.151.151,0,0,0,.3.025,5.629,5.629,0,0,1,1.063-2.643.151.151,0,0,0,.031-.071" transform="translate(-193.41 -132.766)" fill="#454658"/>
        <path id="Path_235299" data-name="Path 235299" d="M474.433,329.936a.151.151,0,0,0-.005-.071,2.83,2.83,0,0,1,.365-2.306.151.151,0,1,0-.243-.178,3.114,3.114,0,0,0-.408,2.578.151.151,0,0,0,.292-.024" transform="translate(-192.889 -133.193)" fill="#454658"/>
        <path id="Path_235300" data-name="Path 235300" d="M474.725,329.91a.149.149,0,0,0-.023-.106l-.161-.244a6.915,6.915,0,0,1-.846-1.507.151.151,0,0,0-.291.078,6.922,6.922,0,0,0,.887,1.6l.16.241a.151.151,0,0,0,.275-.059" transform="translate(-192.636 -133.446)" fill="#454658"/>
        <path id="Path_235301" data-name="Path 235301" d="M330.44,303.566s43.777,2.652,49.949,6.483,1.632,11.541-2.1,11.05-46.191,2.471-46.191,2.471Z" transform="translate(-134.463 -123.527)" fill="#ff8b6a"/>
        <path id="Path_235302" data-name="Path 235302" d="M330.032,302.539c.131.008,13.232.808,25.96,2.137,13.66,1.426,21.824,2.919,24.267,4.434.109.068.211.138.337.225,13.921,4.055,23.921,6.834,29.921,8.317q-.063,3.674-.208,7.344c-1.67.151-4.148.37-7.976.614a57.061,57.061,0,0,1-7.937.127c-.386-.023-.785-.055-1.205-.1a38.37,38.37,0,0,1-4.668-.82,43.315,43.315,0,0,1-9.788-3.588,3.357,3.357,0,0,1-.891.03l-.147-.017c-4.132-.431-45.587,2.453-46.005,2.482l-.584.04-1.76-21.268Z" transform="translate(-134.019 -123.093)" fill="#0b4a73"/>
        <path id="Path_235303" data-name="Path 235303" d="M395.4,264.667a3.371,3.371,0,1,0-4.657-1.021,3.371,3.371,0,0,0,4.657,1.021" transform="translate(-158.787 -105.171)" fill="#e87578"/>
        <path id="Path_235304" data-name="Path 235304" d="M363.332,231.539a5.2,5.2,0,1,0-7.177-1.572,5.195,5.195,0,0,0,7.177,1.572" transform="translate(-144.593 -90.324)" fill="#e87578"/>
        <path id="Path_235305" data-name="Path 235305" d="M364.3,222.842l17.809,21.514a3.943,3.943,0,0,1-5.743,5.237l0,0-.007-.007c-.078-.06-.154-.123-.227-.19s-.123-.128-.184-.192l-20.182-18.281c-3.713-3.4-1.343-7.869.887-9.3a5.822,5.822,0,0,1,7.644,1.213" transform="translate(-143.982 -89.811)" fill="#e87578"/>
        <path id="Path_235306" data-name="Path 235306" d="M403.2,221.557l.014.007a2.435,2.435,0,0,1,4.328,2.207h0l-.015.034-.007.014-10.662,24.03c-.027.065-.055.129-.085.193l-.038.085,0,0a3.94,3.94,0,1,1-6.96-3.691h0l.017-.028.018-.031Z" transform="translate(-158.406 -89.679)" fill="#e87578"/>
        <path id="Path_235307" data-name="Path 235307" d="M396.118,264.054a3.372,3.372,0,1,0-4.758.3,3.372,3.372,0,0,0,4.758-.3" transform="translate(-158.787 -105.171)" fill="#e87578"/>
        <path id="Path_235308" data-name="Path 235308" d="M361.467,219.445c4.947-.448,13.969,13.133,13.969,13.133a40.033,40.033,0,0,1-7.929,7.695l-8.188-7.6" transform="translate(-146.214 -89.292)" fill="#8cbdde"/>
        <path id="Path_235309" data-name="Path 235309" d="M325.578,249.2c.317-8.139.849-15.954,1.541-23.418.4-5.288,5.323-7.7,13.98-7.568,6.3.1,10.834,1.363,11.277,4.9l1.414,44.229c-2.417,3.82-5.282,7.465-7.834,11.024-1.493,2.082-3,4.194-4.608,6.2a35.3,35.3,0,0,1-15.776-1.224c-.413-10.682-.466-22.091,0-34.142" transform="translate(-132.349 -88.792)" fill="#8cbdde"/>
        <line id="Line_84535" data-name="Line 84535" x2="0.34" y2="14.989" transform="translate(220.234 136.452)" fill="none" stroke="#381905" stroke-linecap="round" stroke-linejoin="round" stroke-width="0.634"/>
        <path id="Path_235310" data-name="Path 235310" d="M351.005,179.8c.126.177,7.206-.977,5.574,7.282-.467,2.368-8.935-2.866-8.164-3.3s2.59-3.985,2.59-3.985" transform="translate(-141.757 -73.166)" fill="#08051a"/>
        <path id="Path_235311" data-name="Path 235311" d="M347.406,219.427l1.488-.338c3.076-1,5.758,2.493,5.181,4.821s-9.594-1.619-6.669-4.482" transform="translate(-141.13 -89.081)" fill="#e87578"/>
        <path id="Path_235312" data-name="Path 235312" d="M349.545,213.748c-.009.034-.365.4-.751.782a2.743,2.743,0,0,1-2.883.678,1.615,1.615,0,0,1-.547-.321l-2.713-9.961,4.625.492Z" transform="translate(-139.432 -83.388)" fill="#e87578"/>
        <path id="Path_235313" data-name="Path 235313" d="M349.6,212.909l-2-7.355-4.159-.293c1.228,2.652,3.605,6.293,6.161,7.648" transform="translate(-139.752 -83.525)" fill="#08051a"/>
        <path id="Path_235314" data-name="Path 235314" d="M339.985,193.26a19.8,19.8,0,0,0,1.321,2.12,4.117,4.117,0,0,1,.673.862,7.822,7.822,0,0,0,6.222,2.92,6.338,6.338,0,0,0,3.744-1.323,6.656,6.656,0,0,0,1.324-1.539c1.332-2.19,1.8-6.887-.441-11.086-.9-1.683-3.426-6.407-7.969-6.293a8.134,8.134,0,0,0-7.372,6.409c-.41,2.435.818,4.755,2.5,7.929" transform="translate(-137.298 -72.807)" fill="#e87578"/>
        <path id="Path_235315" data-name="Path 235315" d="M363.552,194.592a1.29,1.29,0,0,0-.423-.647.584.584,0,0,0-.724.007.9.9,0,0,0-.106.836" transform="translate(-147.407 -78.871)" fill="none" stroke="#381905" stroke-linecap="round" stroke-linejoin="round" stroke-width="0.634"/>
        <path id="Path_235316" data-name="Path 235316" d="M355.589,197.823a.852.852,0,1,0-1.661.124" transform="translate(-144.007 -80.105)" fill="none" stroke="#381905" stroke-linecap="round" stroke-linejoin="round" stroke-width="0.634"/>
        <path id="Path_235317" data-name="Path 235317" d="M360.461,201.676a3.674,3.674,0,0,1-2.766.285,2.3,2.3,0,0,0,.909,1.254,1.387,1.387,0,0,0,1.356.037,1.694,1.694,0,0,0,.5-1.577" transform="translate(-145.554 -82.066)" fill="#08051a"/>
        <path id="Path_235318" data-name="Path 235318" d="M335.561,188.951a24.594,24.594,0,0,0,3.956-.555.085.085,0,0,0,.055-.13,3.417,3.417,0,0,1-.45-2.784c.23-.694.633-.64.792-1.279.35-1.413-1.438-2.41-1.183-3.451.145-.592.961-1,3.187-1.477,4.85-1.046,6.5-.371,7.629-1.64,1.178-1.329.622-3.487.5-3.942-.627-2.429-3-4.488-4.905-4.212-1.75.253-1.551,2.348-3.875,4.512-3.631,3.382-7.685,1.659-8.81,4.182-.492,1.1.264,3.2,1.776,7.4.518,1.441,1,2.606,1.322,3.376" transform="translate(-135.226 -68.956)" fill="#08051a"/>
        <path id="Path_235319" data-name="Path 235319" d="M359.323,194.728s.407,1.312.5,1.823c.066.378,1.216-.067,1.307.094s-.491.7-.979,1.1" transform="translate(-146.216 -79.239)" fill="none" stroke="#381905" stroke-linecap="round" stroke-linejoin="round" stroke-width="0.634"/>
        <path id="Path_235320" data-name="Path 235320" d="M341.21,201.1a1.852,1.852,0,1,1-2.811-.894,2.125,2.125,0,0,1,2.811.894" transform="translate(-137.442 -81.365)" fill="#e87578"/>
        <path id="Path_235321" data-name="Path 235321" d="M361.289,189.753c.017.205.75.294,1.039.314s1.026.03,1.071-.173c.04-.179-.464-.524-.986-.571-.557-.049-1.14.241-1.124.429" transform="translate(-147.016 -77.037)" fill="#08051a"/>
        <path id="Path_235322" data-name="Path 235322" d="M352.154,193.618c.1.145-.411.757-1.191,1.289s-1.537.783-1.636.639.319-.891,1.1-1.425,1.629-.649,1.727-.5" transform="translate(-142.143 -78.764)" fill="#08051a"/>
        <path id="Path_235323" data-name="Path 235323" d="M339.821,202.3a2.12,2.12,0,0,1,1.4,1.1.354.354,0,0,0-.551.4" transform="translate(-138.28 -82.322)" fill="none" stroke="#381905" stroke-linecap="round" stroke-linejoin="round" stroke-width="0.634"/>
        <path id="Path_235324" data-name="Path 235324" d="M303.686,268.915a3.371,3.371,0,1,0,.325-4.756,3.371,3.371,0,0,0-.325,4.756" transform="translate(-123.238 -107.153)" fill="#e87578"/>
        <path id="Path_235325" data-name="Path 235325" d="M329.437,232.494a5.2,5.2,0,1,0,.5-7.33,5.195,5.195,0,0,0-.5,7.33" transform="translate(-133.534 -91.103)" fill="#e87578"/>
        <path id="Path_235326" data-name="Path 235326" d="M327.068,232.267,308.4,253.044a3.943,3.943,0,0,1-6.024-4.911l0,0,.005-.008c.049-.085.1-.17.155-.252s.108-.141.162-.211l15.118-22.649c2.815-4.172,7.586-2.485,9.327-.489a5.823,5.823,0,0,1-.077,7.74" transform="translate(-122.837 -90.514)" fill="#e87578"/>
        <path id="Path_235327" data-name="Path 235327" d="M332.679,272.719l0,.015a2.5,2.5,0,0,1,.387.2,2.436,2.436,0,0,1-1.913,4.413v0l-.036-.01-.016,0-25.367-6.9c-.068-.017-.136-.034-.2-.055l-.09-.024,0,0a3.94,3.94,0,1,1,2.594-7.439v0l.03.012.034.014Z" transform="translate(-123.183 -106.884)" fill="#e87578"/>
        <path id="Path_235328" data-name="Path 235328" d="M412.32,218.769c-.064-1.175.334-5.931,1.132-6.266s3.962,1.933,3.344,3.238-2.337-.031-2.659.174,2.166,1.711,1.793,2.422" transform="translate(-167.779 -86.458)" fill="#e87578"/>
        <path id="Path_235329" data-name="Path 235329" d="M335.64,230.617l-7.272,7.932s-6.928-2.391-9.028-7.386c0,0,6.116-10.307,10.715-11.213s8.491,7.4,5.586,10.667" transform="translate(-129.946 -89.474)" fill="#8cbdde"/>
        <path id="Path_235330" data-name="Path 235330" d="M396.154,315.248c-1.133-.829-.281-2.717-.473-6.2-.139-2.521-.641-2.564-4.025-12.493a56.3,56.3,0,0,1-2.183-7.556,33.861,33.861,0,0,1-.64-5.809,44.4,44.4,0,0,1,2.545-16.26,7.224,7.224,0,0,1,3.987-1.626c.872-.064,3.091-.165,4.431,1.382a3.81,3.81,0,0,1,.753,2.621c.027.027-.737,32.612.078,39,.61,4.784,1.565,5.015,1.807,4.993-2.105,1.4-4.924,2.944-6.281,1.952" transform="translate(-158.213 -107.944)" fill="#e87578"/>
        <path id="Path_235331" data-name="Path 235331" d="M412.093,337.409a8.1,8.1,0,0,1-2.382-1.679c-.732-.911-2.021-3.216-2.257-3.222a8.151,8.151,0,0,0-2.244,1.069c-.168.244,3.682,3.471,3.523,3.569s-1.028,2.281-.4,2.527a10.1,10.1,0,0,0,3.076-.327l.709-1.445Z" transform="translate(-164.887 -135.304)" fill="#08051a"/>
        <path id="Path_235332" data-name="Path 235332" d="M414.2,341.306s-.19-.913-.8-1.136-3.233-.311-3.417-.374a11.657,11.657,0,0,0-1.537-.738c-.291-.022-2.344,1.942-2.863,1.877s1-1.569.753-1.773-2.672-2.128-2.774-2.357-3.145,1.855-6.048,1.293l-.4,4.305.055,1.1,1.241.241,3.4-.361,4.634.476,2.378.19,3.537-.862,1.977-1.707Z" transform="translate(-161.595 -137.046)" fill="#454658"/>
        <path id="Path_235333" data-name="Path 235333" d="M414.34,344.809c.016-.052-.078-.846-.3-.926s-.3.919-.441.963a13.6,13.6,0,0,1-6.343,1.543c-3.991.089-4.654-.891-6.535-.888s-3.671.724-3.789-.211c-.057.157-.665,1.874.168,2.692.449.441,1.107.415,2.135.359a14.1,14.1,0,0,0,3.78-.715c.553-.149,1.343.461,3.083.556s7.431-.746,8.241-3.372" transform="translate(-161.412 -139.931)" fill="#fff"/>
        <path id="Path_235334" data-name="Path 235334" d="M414.6,340.862a.151.151,0,0,0,.008-.3,5.814,5.814,0,0,0-2.677.187.151.151,0,0,0-.1.189.15.15,0,0,0,.189.1,5.5,5.5,0,0,1,2.538-.177.156.156,0,0,0,.041,0" transform="translate(-167.582 -138.551)" fill="#454658"/>
        <path id="Path_235335" data-name="Path 235335" d="M412.26,340.247a.148.148,0,0,0,.081-.034c.121-.1.245-.217.371-.336a4.211,4.211,0,0,1,.859-.678.151.151,0,0,0-.138-.268,4.408,4.408,0,0,0-.926.727c-.122.115-.242.227-.359.325a.151.151,0,0,0,.113.265" transform="translate(-167.69 -137.911)" fill="#454658"/>
        <path id="Path_235336" data-name="Path 235336" d="M413.983,340.183a.15.15,0,0,0,.041-.289,8.59,8.59,0,0,0-3.9-.693.151.151,0,0,0,.064.295,8.3,8.3,0,0,1,3.725.676.154.154,0,0,0,.074.011" transform="translate(-166.838 -138.005)" fill="#454658"/>
        <path id="Path_235337" data-name="Path 235337" d="M409.929,338.453a.155.155,0,0,0,.087-.039,6.966,6.966,0,0,1,1.384-.966.151.151,0,1,0-.136-.269,7.34,7.34,0,0,0-1.454,1.014.151.151,0,0,0,.119.26" transform="translate(-166.741 -137.199)" fill="#454658"/>
        <path id="Path_235338" data-name="Path 235338" d="M411.547,338.311a.151.151,0,0,0,.045-.288,5.976,5.976,0,0,0-3-.354.151.151,0,0,0,.055.3,5.634,5.634,0,0,1,2.828.333.149.149,0,0,0,.077.012" transform="translate(-166.213 -137.38)" fill="#454658"/>
        <path id="Path_235339" data-name="Path 235339" d="M407.791,336.817a.147.147,0,0,0,.066-.024,2.832,2.832,0,0,1,2.321-.252.151.151,0,0,0,.108-.281,3.115,3.115,0,0,0-2.595.281.151.151,0,0,0,.1.276" transform="translate(-165.871 -136.765)" fill="#454658"/>
        <path id="Path_235340" data-name="Path 235340" d="M408.487,336.867a.154.154,0,0,0,.1-.049l.193-.22a6.942,6.942,0,0,1,1.233-1.212.151.151,0,0,0-.152-.26,6.946,6.946,0,0,0-1.308,1.274l-.191.217a.151.151,0,0,0,.129.25" transform="translate(-166.154 -136.361)" fill="#454658"/>
        <path id="Path_235341" data-name="Path 235341" d="M328.913,291.88s32.275-29.694,39.316-31.483,9.445,6.831,6.5,9.18-30.259,34.986-30.259,34.986Z" transform="translate(-133.842 -105.862)" fill="#e87578"/>
        <path id="Path_235342" data-name="Path 235342" d="M326.458,291.036c1.323-1.216,32.467-29.816,39.572-31.621a8.089,8.089,0,0,1,1.987-.262,6.511,6.511,0,0,1,6.34,5.527,5.394,5.394,0,0,1,.362,2.134h-.02c.019.294.009.844-.012,1.962-.283,15.292-.34,26.043-.173,32.129q-3.453.831-6.948,1.462l-.147-.4c-.583-1.571-1.464-3.946-2.75-7.718a56.913,56.913,0,0,1-2.2-7.626,31.627,31.627,0,0,1-.584-4.535c-8.553,9.949-18.9,22.315-19.013,22.444l-.375.449c-5.182,4.755-12.864,4.086-16.469-.329-2.8-3.427-2.934-8.856-.073-13.156l.5-.464" transform="translate(-131.789 -105.455)" fill="#105f9a"/>
        <path id="Path_235343" data-name="Path 235343" d="M347.277,282.638a4.991,4.991,0,0,1-.441-1.706,2.364,2.364,0,0,1,.64-1.822c1.391-1.327,2.954.059,4.27.651a5.677,5.677,0,0,1,1.773.85,3.938,3.938,0,0,0,1.114.825c.3.117.672.179.807.47a.564.564,0,0,1-.071.546.9.9,0,0,1-.832.374c-.274-.05-.719-.363-1-.211-.372.2-.477.81-.468,1.186.036,1.4.935,2.616,1.3,3.967.073.269.093.62-.148.76a.467.467,0,0,1-.521-.087,1.369,1.369,0,0,1-.305-.47q-.453-.963-.905-1.926c-.046-.1-.17-.354-.315-.33-.126.021-.141.257-.13.358a1.376,1.376,0,0,0,.118.38c.288.686.556,1.379.824,2.072a1.865,1.865,0,0,1,.17.7.633.633,0,0,1-.348.585c-.353.143-.562-.235-.684-.5-.178-.381-.332-.775-.479-1.17-.3-.791-.556-1.595-.882-2.374-.059-.141-.168-.308-.317-.275a.226.226,0,0,0-.157.209.667.667,0,0,0,.055.272l.961,2.7c.061.171.2.528.014.667s-.442-.069-.553-.209a5.78,5.78,0,0,1-.793-1.7c-.205-.579-.456-1.135-.707-1.7a.2.2,0,0,0-.1-.121.138.138,0,0,0-.16.1.408.408,0,0,0,.015.209,15.7,15.7,0,0,1,.339,1.777c.02.155.011.356-.137.408a.235.235,0,0,1-.227-.062,2.676,2.676,0,0,1-.453-.771,3.633,3.633,0,0,1-.256-1.012,13.142,13.142,0,0,0-.209-1.581,14.946,14.946,0,0,0-.809-2.044" transform="translate(-141.134 -113.349)" fill="#e87578"/>
        <path id="Path_235344" data-name="Path 235344" d="M426.55,179.064s2.39-4.673-.378-6.779l-1.151,5.063" transform="translate(-172.95 -70.106)" fill="#fff"/>
        <path id="Path_235345" data-name="Path 235345" d="M407,182.512l-.793,5.159,2.276-.218a16.6,16.6,0,0,0,2.607-1.18" transform="translate(-165.296 -74.268)" fill="#fff"/>
        <path id="Path_235346" data-name="Path 235346" d="M409.287,185.177a5.547,5.547,0,0,1-1.738-3.647s9.694-1.842,10.218-1.347,2.076,1.707,1.415,2.575-9.895,2.419-9.895,2.419" transform="translate(-165.839 -73.286)" fill="#fff"/>
        <path id="Path_235347" data-name="Path 235347" d="M436.668,180.9s-3.753-1.117-4.85-2.79c0,0-4.733,2-4.917,2.693s-.868,2.544.15,2.934,9.617-2.837,9.617-2.837" transform="translate(-173.554 -72.478)" fill="#fff"/>
        <path id="Path_235348" data-name="Path 235348" d="M426,181.553l-.519-.118-8.329,1.5a.335.335,0,0,0-.255.263c-.036.161-.39.308-2.022-.063-1.7-.387-1.928-.728-1.879-.917a.325.325,0,0,0-.119-.343L402.313,184.4l-4.7,21.758.356.367,9.831-2.835s-.52.662,2.088,1.254,2.424-.229,2.424-.229l8.989-2.638Z" transform="translate(-161.796 -73.83)" fill="#ee444f"/>
        <path id="Path_235349" data-name="Path 235349" d="M426.244,181.634l-8.8,1.809s.183.821-2.424.228-2.088-1.254-2.088-1.254L403.2,184.8l-4.989,21.8,9.728-2.379s-.52.661,2.087,1.254,2.424-.229,2.424-.229l8.989-2.638Z" transform="translate(-162.041 -73.911)" fill="#ee444f"/>
        <g id="Group_151540" data-name="Group 151540" transform="translate(236.172 108.518)" opacity="0.35">
          <g id="Group_151539" data-name="Group 151539">
            <g id="Group_151538" data-name="Group 151538" clip-path="url(#clip-path-7)">
              <path id="Path_235350" data-name="Path 235350" d="M403.2,185.343l-4.989,21.8,9.6-2.347,5.074-21.825Z" transform="translate(-398.213 -182.974)" fill="#370909"/>
            </g>
          </g>
        </g>
        <g id="Group_151543" data-name="Group 151543" transform="translate(249.281 110.045)" opacity="0.35">
          <g id="Group_151542" data-name="Group 151542">
            <g id="Group_151541" data-name="Group 151541" clip-path="url(#clip-path-8)">
              <path id="Path_235351" data-name="Path 235351" d="M425.977,185.549a2.844,2.844,0,0,1-.717.024l-4.943,21.6a2.249,2.249,0,0,0,.721-.042Z" transform="translate(-420.317 -185.549)" fill="#370909"/>
            </g>
          </g>
        </g>
        <path id="Path_235352" data-name="Path 235352" d="M416.65,220.639a.527.527,0,0,1,.025-.06.891.891,0,0,1,.407-.37c.165-.086.343-.146.506-.238a.532.532,0,0,0,.314-.409,1.15,1.15,0,0,0-.068-.291.7.7,0,0,1,.1-.559c.246-.352.77-.337,1.152-.4l1.243-.192.882-.136a1.383,1.383,0,0,0,.314-.049c-.381.167-.06.152-.179.093.151.074.422.067.5.556a2.737,2.737,0,0,1-.212.845c-.2.275-.735.283-.856.27-.2-.02.453.753.163,1.176a3.059,3.059,0,0,1-1.4.549c-.2.05.117.746-.764,1.292-.039.024-.082.042-.122.064l-.876-.092-.886-.092c-.222-.023-.531-.03-.581-.309a.474.474,0,0,1,.122-.381,1.047,1.047,0,0,1,.336-.237c.13-.063.289-.158.268-.3s-.192-.185-.3-.278a.432.432,0,0,1-.093-.457" transform="translate(-169.404 -88.684)" fill="#e87578"/>
        <path id="Path_235353" data-name="Path 235353" d="M422.582,217.941s-3.471.461-3.614.866-.333,1.181,2.35.826" transform="translate(-170.458 -88.685)" fill="none" stroke="#381905" stroke-linecap="round" stroke-linejoin="round" stroke-width="0.634"/>
        <path id="Path_235354" data-name="Path 235354" d="M418.719,220.884s-1.85.163-1.968,1.04,2.969.7,2.969.7" transform="translate(-169.583 -89.882)" fill="none" stroke="#381905" stroke-linecap="round" stroke-linejoin="round" stroke-width="0.634"/>
        <path id="Path_235355" data-name="Path 235355" d="M418.15,223.8s-1.938.125-1.894.766,2.309.458,2.309.458" transform="translate(-169.383 -91.071)" fill="none" stroke="#381905" stroke-linecap="round" stroke-linejoin="round" stroke-width="0.634"/>
        <path id="Path_235356" data-name="Path 235356" d="M336.4,295.2c-2.426,2.139-13.043,15.231-12.986,20.935,0,0-2.3-3.146-2.32-4.926s2.373-3.626,1.645-4.22-1.382-1.084-.95-1.676a18.72,18.72,0,0,0,1.766-8.141c.018-4.072,4.108-3.337,4.108-3.337" transform="translate(-130.66 -119.549)" fill="#8cbdde"/>
      </g>
    </g>
  </g>
</svg>
