<svg xmlns="http://www.w3.org/2000/svg" xmlns:xlink="http://www.w3.org/1999/xlink" width="215.487" height="54.943" viewBox="0 0 215.487 54.943">
  <defs>
    <clipPath id="clip-path">
      <rect id="Rectangle_177490" data-name="Rectangle 177490" width="215.487" height="54.943" fill="none"/>
    </clipPath>
  </defs>
  <g id="Group_96645" data-name="Group 96645" transform="translate(0 -0.001)">
    <g id="Group_96642" data-name="Group 96642" transform="translate(0 0.001)">
      <g id="Group_96641" data-name="Group 96641" clip-path="url(#clip-path)">
        <text id="SmartLearn" transform="translate(42.958 34.028)" fill="#fff" font-size="29" font-family="SuezOne-Regular, Suez One"><tspan x="0" y="0" letter-spacing="-0.004em">S</tspan><tspan y="0">ma</tspan><tspan y="0" letter-spacing="0.043em">r</tspan><tspan y="0">t</tspan><tspan y="0" letter-spacing="0.025em">L</tspan><tspan y="0">ea</tspan><tspan y="0" letter-spacing="0.009em">r</tspan><tspan y="0">n</tspan></text>
        <text id="School_Academy" data-name="School Academy" transform="translate(43.463 46.826)" fill="#fff" font-size="9" font-family="Poppins-Regular, Poppins"><tspan x="0" y="0" letter-spacing="0.1em">Sc</tspan><tspan y="0" letter-spacing="0.099em">h</tspan><tspan y="0" letter-spacing="0.1em">o</tspan><tspan y="0" letter-spacing="0.099em">o</tspan><tspan y="0" letter-spacing="0.1em">l </tspan><tspan y="0" letter-spacing="0.099em">A</tspan><tspan y="0" letter-spacing="0.1em">c</tspan><tspan y="0" letter-spacing="0.099em">a</tspan><tspan y="0" letter-spacing="0.1em">d</tspan><tspan y="0" letter-spacing="0.099em">e</tspan><tspan y="0" letter-spacing="0.1em">m</tspan><tspan y="0">y</tspan></text>
        <path id="Path_231730" data-name="Path 231730" d="M37.694,9.783c0-.008,0-.015-.005-.022L35.2,1.723A2.441,2.441,0,0,0,31.547.391L24.482,4.948l-.026.018a1.462,1.462,0,0,0-.558.713L20.239,15.743l-1.545-4.25h0l-2-5.513h0L15.353,2.3A3.422,3.422,0,0,0,10.972.257L2.251,3.434A3.425,3.425,0,0,0,.208,7.821L5.62,22.708A3.427,3.427,0,0,0,2.937,26.05V42.676a7.339,7.339,0,0,0,7.326,7.335H28.731a7.339,7.339,0,0,0,7.326-7.335V26.05A3.428,3.428,0,0,0,33.3,22.693l4.362-12A1.47,1.47,0,0,0,37.694,9.783Zm-5.1-6.576,1.423,4.6-2.732-1h0l-2.732-1ZM26.15,8.061l2.753,1-4.93,13.563H20.855ZM2.962,6.818a.489.489,0,0,1,.292-.626l8.72-3.178a.489.489,0,0,1,.626.292l.835,2.3L10.452,6.69a1.467,1.467,0,1,0,1,2.758l2.983-1.087,1,2.757L10.62,12.873a1.467,1.467,0,1,0,1,2.758l4.818-1.756,1,2.757L14.46,17.719a1.467,1.467,0,1,0,1,2.757l2.983-1.087.234.644-.943,2.594H8.709ZM33.126,42.676a4.4,4.4,0,0,1-4.4,4.4H10.263a4.4,4.4,0,0,1-4.4-4.4V26.05a.489.489,0,0,1,.488-.489H32.638a.49.49,0,0,1,.489.489ZM30.21,22.627H27.092l4.565-12.559,2.753,1Z" transform="translate(0 0)" fill="#fff"/>
      </g>
    </g>
    <text id="S" transform="translate(14.609 41.516)" fill="#fff" font-size="18" font-family="SuezOne-Regular, Suez One"><tspan x="0" y="0">S</tspan></text>
    <g id="Group_96644" data-name="Group 96644" transform="translate(0 0.001)">
      <g id="Group_96643" data-name="Group 96643" clip-path="url(#clip-path)">
        <rect id="Rectangle_177491" data-name="Rectangle 177491" width="64.777" height="2.833" transform="translate(150.341 44.686)" fill="#fff"/>
      </g>
    </g>
  </g>
</svg>
