<svg xmlns="http://www.w3.org/2000/svg" xmlns:xlink="http://www.w3.org/1999/xlink" width="336.879" height="85.894" viewBox="0 0 336.879 85.894">
  <defs>
    <clipPath id="clip-path">
      <rect id="Rectangle_177490" data-name="Rectangle 177490" width="336.879" height="85.894" fill="#2c2e3a"/>
    </clipPath>
  </defs>
  <g id="Group_96645" data-name="Group 96645" transform="translate(0 -0.001)">
    <g id="Group_96642" data-name="Group 96642" transform="translate(0 0.001)">
      <g id="Group_96641" data-name="Group 96641" clip-path="url(#clip-path)">
        <text id="SmartLearn" transform="translate(67.158 51.86)" fill="#2c2e3a" font-size="45" font-family="SuezOne-Regular, Suez One"><tspan x="0" y="0" letter-spacing="-0.004em">S</tspan><tspan y="0">ma</tspan><tspan y="0" letter-spacing="0.043em">r</tspan><tspan y="0">t</tspan><tspan y="0" letter-spacing="0.025em">L</tspan><tspan y="0">ea</tspan><tspan y="0" letter-spacing="0.009em">r</tspan><tspan y="0">n</tspan></text>
        <text id="School_Academy" data-name="School Academy" transform="translate(67.948 73.134)" fill="#2c2e3a" font-size="13" font-family="Poppins-Regular, Poppins"><tspan x="0" y="0" letter-spacing="0.1em">Sc</tspan><tspan y="0" letter-spacing="0.099em">h</tspan><tspan y="0" letter-spacing="0.1em">o</tspan><tspan y="0" letter-spacing="0.099em">o</tspan><tspan y="0" letter-spacing="0.1em">l </tspan><tspan y="0" letter-spacing="0.099em">A</tspan><tspan y="0" letter-spacing="0.1em">c</tspan><tspan y="0" letter-spacing="0.099em">a</tspan><tspan y="0" letter-spacing="0.1em">d</tspan><tspan y="0" letter-spacing="0.099em">e</tspan><tspan y="0" letter-spacing="0.1em">m</tspan><tspan y="0">y</tspan></text>
        <path id="Path_231730" data-name="Path 231730" d="M58.927,15.294c0-.012,0-.023-.008-.035L55.031,2.694A3.817,3.817,0,0,0,49.318.612L38.272,7.735c-.015.009-.028.019-.04.028a2.286,2.286,0,0,0-.872,1.115L31.64,24.612l-2.415-6.644v0h0L26.092,9.347h0L24,3.6A5.349,5.349,0,0,0,17.152.4L3.52,5.369A5.355,5.355,0,0,0,.325,12.228L8.785,35.5a5.357,5.357,0,0,0-4.194,5.225V66.716A11.474,11.474,0,0,0,16.044,78.184H44.916A11.473,11.473,0,0,0,56.368,66.716V40.725a5.359,5.359,0,0,0-4.3-5.248l6.819-18.754A2.3,2.3,0,0,0,58.927,15.294ZM50.953,5.013,53.178,12.2l-4.271-1.556h0L44.634,9.088ZM40.881,12.6l4.3,1.568-7.707,21.2H32.6ZM4.631,10.658a.764.764,0,0,1,.456-.979L18.718,4.711a.764.764,0,0,1,.979.457L21,8.76l-4.664,1.7a2.293,2.293,0,1,0,1.566,4.311l4.664-1.7,1.567,4.31L16.6,20.125a2.294,2.294,0,1,0,1.567,4.311L25.7,21.691,27.271,26l-4.664,1.7a2.293,2.293,0,1,0,1.567,4.31l4.664-1.7.365,1.007-1.474,4.056H13.614ZM51.787,66.716a6.883,6.883,0,0,1-6.872,6.88H16.044a6.883,6.883,0,0,1-6.871-6.88V40.725a.765.765,0,0,1,.763-.765H51.024a.765.765,0,0,1,.764.765ZM47.229,35.374H42.354L49.491,15.74l4.3,1.568Z" transform="translate(0 0)" fill="#2c2e3a"/>
      </g>
    </g>
    <text id="S" transform="translate(22.838 64.764)" fill="#2c2e3a" font-size="28" font-family="SuezOne-Regular, Suez One"><tspan x="0" y="0">S</tspan></text>
    <g id="Group_96644" data-name="Group 96644" transform="translate(0 0.001)">
      <g id="Group_96643" data-name="Group 96643" clip-path="url(#clip-path)">
        <rect id="Rectangle_177491" data-name="Rectangle 177491" width="101.268" height="4.429" transform="translate(235.034 69.859)" fill="#2c2e3a"/>
      </g>
    </g>
  </g>
</svg>
