<svg id="Group_590" data-name="Group 590" xmlns="http://www.w3.org/2000/svg" xmlns:xlink="http://www.w3.org/1999/xlink" width="96" height="96" viewBox="0 0 96 96">
  <defs>
    <linearGradient id="linear-gradient" x1="0.5" x2="0.5" y2="1" gradientUnits="objectBoundingBox">
      <stop offset="0" stop-color="#3e85f0"/>
      <stop offset="1" stop-color="#ebf3ff"/>
    </linearGradient>
    <clipPath id="clip-path">
      <rect id="Rectangle_414" data-name="Rectangle 414" width="96" height="96" fill="url(#linear-gradient)"/>
    </clipPath>
    <clipPath id="clip-path-2">
      <rect id="Rectangle_186652" data-name="Rectangle 186652" width="67.452" height="67.43" transform="translate(0 0)" fill="#2c2e3a"/>
    </clipPath>
  </defs>
  <g id="Group_589" data-name="Group 589" clip-path="url(#clip-path)">
    <g id="Group_224984" data-name="Group 224984" transform="translate(14.274 14.285)">
      <g id="Group_224984-2" data-name="Group 224984" clip-path="url(#clip-path-2)">
        <path id="Path_484234" data-name="Path 484234" d="M0,7.4a19.41,19.41,0,0,1,1.251-3.28A8,8,0,0,1,8.388.04C12.073,0,15.758.026,19.444.03a2.834,2.834,0,0,1,3.033,2.783,2.856,2.856,0,0,1-3.053,2.841c-3.532.01-7.064,0-10.6,0q-3.2,0-3.2,3.187c0,3.531,0,7.062,0,10.593A2.871,2.871,0,0,1,3.577,22.39,2.814,2.814,0,0,1,.22,20.764C.152,20.608.074,20.456,0,20.3V7.4" fill="#2c2e3a"/>
        <path id="Path_484235" data-name="Path 484235" d="M0,47.157a3.1,3.1,0,0,1,2.08-2.1,2.817,2.817,0,0,1,3.544,2.891c.018,3.333.1,6.669-.024,10-.1,2.768,1.137,3.981,3.882,3.881,3.329-.121,6.666-.041,10-.024a2.82,2.82,0,0,1,2.875,3.607,3.125,3.125,0,0,1-2.08,2.016H7.374a1.639,1.639,0,0,0-.3-.115,8.063,8.063,0,0,1-5.93-4.144A20.754,20.754,0,0,1,0,60.058v-12.9" fill="#2c2e3a"/>
        <path id="Path_484236" data-name="Path 484236" d="M47.139,67.43a3.1,3.1,0,0,1-2.1-2.079,2.818,2.818,0,0,1,2.891-3.544c3.269-.017,6.539-.005,9.807-.005.373,0,.746.005,1.119,0a2.763,2.763,0,0,0,2.923-2.934c.014-3.619,0-7.238.007-10.857a2.815,2.815,0,0,1,2.318-2.991,2.746,2.746,0,0,1,3.288,2.575c.043,4.013.115,8.031-.028,12.04a8.3,8.3,0,0,1-6.9,7.665,3.678,3.678,0,0,0-.427.131Z" fill="#2c2e3a"/>
        <path id="Path_484237" data-name="Path 484237" d="M14.056,42.154c-.965,0-1.84.007-2.715,0a2.812,2.812,0,1,1-.084-5.622c.11,0,.22,0,.329,0H55.818a2.9,2.9,0,0,1,2.986,1.82,2.8,2.8,0,0,1-2.523,3.8c-.94.034-1.883.006-2.921.006v.74c0,1.557.01,3.114,0,4.672a5.549,5.549,0,0,1-5.789,5.808q-13.855.024-27.711,0a5.56,5.56,0,0,1-5.8-5.8c-.013-1.773,0-3.547,0-5.418" fill="#2c2e3a"/>
        <path id="Path_484238" data-name="Path 484238" d="M47.764,19.718H19.652v.809c0,2.566.016,5.132-.015,7.7a2.7,2.7,0,0,1-2.243,2.631,2.734,2.734,0,0,1-3.077-1.582,3.2,3.2,0,0,1-.249-1.207c-.02-2.807-.042-5.615,0-8.422A5.481,5.481,0,0,1,19.636,14.1q14.083-.048,28.167,0a5.469,5.469,0,0,1,5.541,5.5c.05,2.829.029,5.659.008,8.488a2.791,2.791,0,1,1-5.581-.019c-.021-2.522-.007-5.045-.007-7.567v-.786" fill="#2c2e3a"/>
        <path id="Path_484239" data-name="Path 484239" d="M67.416,13.851c0,1.887,0,3.773,0,5.66a2.815,2.815,0,1,1-5.621.024c-.017-3.554,0-7.108-.007-10.661,0-2.163-1.062-3.216-3.236-3.218-3.532,0-7.065.011-10.6-.005a2.816,2.816,0,0,1-2.925-3.463A2.724,2.724,0,0,1,47.616.042c3.971-.023,7.945-.094,11.913.022a8.353,8.353,0,0,1,7.877,8.128c.036,1.885.006,3.772.006,5.659Z" fill="#2c2e3a"/>
      </g>
    </g>
  </g>
</svg>
